<mxfile host="65bd71144e" modified="2020-10-08T22:32:36.947Z" agent="5.0 (Windows NT 10.0; Win64; x64) AppleWebKit/537.36 (KHTML, like Gecko) Code/1.49.3 Chrome/83.0.4103.122 Electron/9.2.1 Safari/537.36" etag="pJjGV3900uyhgxkbaNmK" version="13.6.5" pages="6">
    <diagram id="kvLAfXi92Oaas7xAe1u1" name="v1">
        <mxGraphModel dx="2134" dy="804" grid="1" gridSize="10" guides="1" tooltips="1" connect="1" arrows="1" fold="1" page="1" pageScale="1" pageWidth="850" pageHeight="1100" math="0" shadow="0">
            <root>
                <mxCell id="0"/>
                <mxCell id="1" parent="0"/>
                <mxCell id="qhOpbo7WFBdnRMEa5aBt-1" value="Ed-Fi LMS to ODS Process" style="swimlane;html=1;childLayout=stackLayout;resizeParent=1;resizeParentMax=0;horizontal=1;startSize=20;horizontalStack=0;" parent="1" vertex="1">
                    <mxGeometry x="80" y="80" width="725" height="680" as="geometry">
                        <mxRectangle x="180" y="210" width="60" height="20" as="alternateBounds"/>
                    </mxGeometry>
                </mxCell>
                <mxCell id="qhOpbo7WFBdnRMEa5aBt-2" value="LMS" style="swimlane;html=1;startSize=20;horizontal=0;" parent="qhOpbo7WFBdnRMEa5aBt-1" vertex="1">
                    <mxGeometry y="20" width="725" height="150" as="geometry"/>
                </mxCell>
                <mxCell id="qhOpbo7WFBdnRMEa5aBt-5" value="API Service" style="rounded=0;whiteSpace=wrap;html=1;fillColor=#f5f5f5;strokeColor=#666666;fontColor=#333333;gradientColor=#ffffff;" parent="qhOpbo7WFBdnRMEa5aBt-2" vertex="1">
                    <mxGeometry x="221" y="30" width="120" height="60" as="geometry"/>
                </mxCell>
                <mxCell id="qhOpbo7WFBdnRMEa5aBt-70" value="Need to add storage of logs and raw data (JSON?). Is there an embeddable doc store? ... more likely to use MSSQL and/or PGSQL, possibly with their doc store" style="shape=note;strokeWidth=2;fontSize=12;size=20;whiteSpace=wrap;html=1;fillColor=#fff2cc;strokeColor=#d6b656;fontColor=#666600;glass=0;" parent="qhOpbo7WFBdnRMEa5aBt-2" vertex="1">
                    <mxGeometry x="345" y="80" width="235" height="60" as="geometry"/>
                </mxCell>
                <mxCell id="qhOpbo7WFBdnRMEa5aBt-3" value="Processing Server" style="swimlane;html=1;startSize=20;horizontal=0;" parent="qhOpbo7WFBdnRMEa5aBt-1" vertex="1">
                    <mxGeometry y="170" width="725" height="290" as="geometry"/>
                </mxCell>
                <mxCell id="qhOpbo7WFBdnRMEa5aBt-55" value="CSV Files" style="rounded=0;whiteSpace=wrap;html=1;shadow=0;glass=0;sketch=0;strokeColor=#999999;gradientColor=none;fontSize=12;verticalAlign=bottom;" parent="qhOpbo7WFBdnRMEa5aBt-3" vertex="1">
                    <mxGeometry x="342" y="20" width="349" height="160" as="geometry"/>
                </mxCell>
                <mxCell id="qhOpbo7WFBdnRMEa5aBt-23" value="etc." style="text;html=1;strokeColor=none;fillColor=none;align=center;verticalAlign=middle;whiteSpace=wrap;rounded=0;" parent="qhOpbo7WFBdnRMEa5aBt-3" vertex="1">
                    <mxGeometry x="542" y="80" width="40" height="20" as="geometry"/>
                </mxCell>
                <mxCell id="qhOpbo7WFBdnRMEa5aBt-32" style="edgeStyle=orthogonalEdgeStyle;rounded=0;orthogonalLoop=1;jettySize=auto;html=1;exitX=1;exitY=0.75;exitDx=0;exitDy=0;entryX=0;entryY=0.5;entryDx=0;entryDy=0;" parent="qhOpbo7WFBdnRMEa5aBt-3" source="qhOpbo7WFBdnRMEa5aBt-6" target="qhOpbo7WFBdnRMEa5aBt-55" edge="1">
                    <mxGeometry relative="1" as="geometry">
                        <mxPoint x="270" y="120" as="targetPoint"/>
                    </mxGeometry>
                </mxCell>
                <mxCell id="qhOpbo7WFBdnRMEa5aBt-33" value="1.2 Export CSV" style="edgeLabel;html=1;align=center;verticalAlign=middle;resizable=0;points=[];" parent="qhOpbo7WFBdnRMEa5aBt-32" vertex="1" connectable="0">
                    <mxGeometry x="0.2053" y="-5" relative="1" as="geometry">
                        <mxPoint as="offset"/>
                    </mxGeometry>
                </mxCell>
                <mxCell id="qhOpbo7WFBdnRMEa5aBt-6" value="LMS Extractor" style="rounded=0;whiteSpace=wrap;html=1;fillColor=#dae8fc;strokeColor=#6c8ebf;gradientColor=#ffffff;" parent="qhOpbo7WFBdnRMEa5aBt-3" vertex="1">
                    <mxGeometry x="132" y="30" width="120" height="60" as="geometry"/>
                </mxCell>
                <mxCell id="qhOpbo7WFBdnRMEa5aBt-22" value="Assignments" style="shape=parallelogram;html=1;strokeWidth=2;perimeter=parallelogramPerimeter;whiteSpace=wrap;rounded=1;arcSize=12;size=0.23;fillColor=#dae8fc;strokeColor=#6c8ebf;gradientColor=#ffffff;" parent="qhOpbo7WFBdnRMEa5aBt-3" vertex="1">
                    <mxGeometry x="462" y="30" width="100" height="60" as="geometry"/>
                </mxCell>
                <mxCell id="qhOpbo7WFBdnRMEa5aBt-59" value="1" style="edgeStyle=orthogonalEdgeStyle;rounded=0;orthogonalLoop=1;jettySize=auto;html=1;exitX=0.845;exitY=1;exitDx=0;exitDy=0;entryX=0;entryY=0.5;entryDx=0;entryDy=0;fontSize=12;exitPerimeter=0;" parent="qhOpbo7WFBdnRMEa5aBt-3" source="qhOpbo7WFBdnRMEa5aBt-58" target="qhOpbo7WFBdnRMEa5aBt-6" edge="1">
                    <mxGeometry relative="1" as="geometry"/>
                </mxCell>
                <mxCell id="qhOpbo7WFBdnRMEa5aBt-60" value="2" style="edgeStyle=orthogonalEdgeStyle;rounded=0;orthogonalLoop=1;jettySize=auto;html=1;exitX=0.73;exitY=1.117;exitDx=0;exitDy=0;entryX=0;entryY=0.5;entryDx=0;entryDy=0;fontSize=12;exitPerimeter=0;" parent="qhOpbo7WFBdnRMEa5aBt-3" source="qhOpbo7WFBdnRMEa5aBt-58" target="qhOpbo7WFBdnRMEa5aBt-45" edge="1">
                    <mxGeometry relative="1" as="geometry"/>
                </mxCell>
                <mxCell id="qhOpbo7WFBdnRMEa5aBt-61" style="edgeStyle=orthogonalEdgeStyle;rounded=0;orthogonalLoop=1;jettySize=auto;html=1;exitX=0.25;exitY=1;exitDx=0;exitDy=0;entryX=0;entryY=0.5;entryDx=0;entryDy=0;fontSize=12;jumpStyle=arc;jumpSize=20;dashed=1;dashPattern=1 1;" parent="qhOpbo7WFBdnRMEa5aBt-3" source="qhOpbo7WFBdnRMEa5aBt-58" target="qhOpbo7WFBdnRMEa5aBt-34" edge="1">
                    <mxGeometry relative="1" as="geometry">
                        <Array as="points">
                            <mxPoint x="110" y="213"/>
                            <mxPoint x="110" y="240"/>
                        </Array>
                    </mxGeometry>
                </mxCell>
                <mxCell id="qhOpbo7WFBdnRMEa5aBt-67" value="3 (optional)" style="edgeLabel;html=1;align=center;verticalAlign=middle;resizable=0;points=[];fontSize=12;" parent="qhOpbo7WFBdnRMEa5aBt-61" vertex="1" connectable="0">
                    <mxGeometry x="0.3976" y="-1" relative="1" as="geometry">
                        <mxPoint as="offset"/>
                    </mxGeometry>
                </mxCell>
                <mxCell id="qhOpbo7WFBdnRMEa5aBt-58" value="Orchestration / Scheduler Service" style="rounded=0;whiteSpace=wrap;html=1;fillColor=#dae8fc;strokeColor=#6c8ebf;gradientColor=#ffffff;rotation=-90;" parent="qhOpbo7WFBdnRMEa5aBt-3" vertex="1">
                    <mxGeometry x="-170" y="230" width="470" height="60" as="geometry"/>
                </mxCell>
                <mxCell id="qhOpbo7WFBdnRMEa5aBt-21" value="Submissions" style="shape=parallelogram;html=1;strokeWidth=2;perimeter=parallelogramPerimeter;whiteSpace=wrap;rounded=1;arcSize=12;size=0.23;fillColor=#dae8fc;strokeColor=#6c8ebf;gradientColor=#ffffff;" parent="qhOpbo7WFBdnRMEa5aBt-3" vertex="1">
                    <mxGeometry x="442" y="100" width="100" height="60" as="geometry"/>
                </mxCell>
                <mxCell id="qhOpbo7WFBdnRMEa5aBt-20" value="Students" style="shape=parallelogram;html=1;strokeWidth=2;perimeter=parallelogramPerimeter;whiteSpace=wrap;rounded=1;arcSize=12;size=0.23;fillColor=#dae8fc;strokeColor=#6c8ebf;gradientColor=#ffffff;" parent="qhOpbo7WFBdnRMEa5aBt-3" vertex="1">
                    <mxGeometry x="352" y="100" width="100" height="60" as="geometry"/>
                </mxCell>
                <mxCell id="qhOpbo7WFBdnRMEa5aBt-19" value="Sections" style="shape=parallelogram;html=1;strokeWidth=2;perimeter=parallelogramPerimeter;whiteSpace=wrap;rounded=1;arcSize=12;size=0.23;fillColor=#dae8fc;strokeColor=#6c8ebf;gradientColor=#ffffff;" parent="qhOpbo7WFBdnRMEa5aBt-3" vertex="1">
                    <mxGeometry x="372" y="30" width="100" height="60" as="geometry"/>
                </mxCell>
                <mxCell id="qhOpbo7WFBdnRMEa5aBt-35" value="3.1 Read Data" style="edgeStyle=orthogonalEdgeStyle;rounded=0;orthogonalLoop=1;jettySize=auto;html=1;exitX=1;exitY=0.25;exitDx=0;exitDy=0;entryX=0.5;entryY=1;entryDx=0;entryDy=0;fontSize=12;" parent="qhOpbo7WFBdnRMEa5aBt-3" source="qhOpbo7WFBdnRMEa5aBt-34" target="qhOpbo7WFBdnRMEa5aBt-55" edge="1">
                    <mxGeometry relative="1" as="geometry">
                        <mxPoint x="490" y="200" as="targetPoint"/>
                    </mxGeometry>
                </mxCell>
                <mxCell id="qhOpbo7WFBdnRMEa5aBt-38" style="edgeStyle=orthogonalEdgeStyle;rounded=0;orthogonalLoop=1;jettySize=auto;html=1;exitX=0.75;exitY=1;exitDx=0;exitDy=0;entryX=0.5;entryY=1;entryDx=0;entryDy=0;" parent="qhOpbo7WFBdnRMEa5aBt-3" source="qhOpbo7WFBdnRMEa5aBt-34" target="qhOpbo7WFBdnRMEa5aBt-56" edge="1">
                    <mxGeometry relative="1" as="geometry">
                        <mxPoint x="588.3705263157894" y="160" as="targetPoint"/>
                        <Array as="points">
                            <mxPoint x="362" y="280"/>
                            <mxPoint x="621" y="280"/>
                        </Array>
                    </mxGeometry>
                </mxCell>
                <mxCell id="qhOpbo7WFBdnRMEa5aBt-39" value="3.3 Store output" style="edgeLabel;html=1;align=center;verticalAlign=middle;resizable=0;points=[];fontSize=12;" parent="qhOpbo7WFBdnRMEa5aBt-38" vertex="1" connectable="0">
                    <mxGeometry x="-0.5045" y="5" relative="1" as="geometry">
                        <mxPoint as="offset"/>
                    </mxGeometry>
                </mxCell>
                <mxCell id="qhOpbo7WFBdnRMEa5aBt-36" value="3.2 Analyze" style="edgeStyle=orthogonalEdgeStyle;rounded=0;orthogonalLoop=1;jettySize=auto;html=1;exitX=1;exitY=0.5;exitDx=0;exitDy=0;entryX=1;entryY=0.75;entryDx=0;entryDy=0;fontSize=12;" parent="qhOpbo7WFBdnRMEa5aBt-3" source="qhOpbo7WFBdnRMEa5aBt-34" target="qhOpbo7WFBdnRMEa5aBt-34" edge="1">
                    <mxGeometry relative="1" as="geometry">
                        <Array as="points">
                            <mxPoint x="440" y="240"/>
                            <mxPoint x="440" y="255"/>
                        </Array>
                    </mxGeometry>
                </mxCell>
                <mxCell id="qhOpbo7WFBdnRMEa5aBt-46" style="edgeStyle=orthogonalEdgeStyle;rounded=0;orthogonalLoop=1;jettySize=auto;html=1;exitX=1;exitY=0.5;exitDx=0;exitDy=0;fontSize=12;entryX=0;entryY=0.75;entryDx=0;entryDy=0;" parent="qhOpbo7WFBdnRMEa5aBt-3" source="qhOpbo7WFBdnRMEa5aBt-45" target="qhOpbo7WFBdnRMEa5aBt-55" edge="1">
                    <mxGeometry relative="1" as="geometry">
                        <mxPoint x="280" y="140" as="targetPoint"/>
                    </mxGeometry>
                </mxCell>
                <mxCell id="qhOpbo7WFBdnRMEa5aBt-49" value="2.1 Read&lt;br&gt;Data" style="edgeLabel;html=1;align=center;verticalAlign=middle;resizable=0;points=[];fontSize=12;" parent="qhOpbo7WFBdnRMEa5aBt-46" vertex="1" connectable="0">
                    <mxGeometry x="-0.4014" y="4" relative="1" as="geometry">
                        <mxPoint as="offset"/>
                    </mxGeometry>
                </mxCell>
                <mxCell id="qhOpbo7WFBdnRMEa5aBt-56" value="Analysis" style="shape=parallelogram;html=1;strokeWidth=2;perimeter=parallelogramPerimeter;whiteSpace=wrap;rounded=1;arcSize=12;size=0.23;fillColor=#dae8fc;strokeColor=#6c8ebf;gradientColor=#ffffff;" parent="qhOpbo7WFBdnRMEa5aBt-3" vertex="1">
                    <mxGeometry x="571" y="100" width="100" height="60" as="geometry"/>
                </mxCell>
                <mxCell id="qhOpbo7WFBdnRMEa5aBt-45" value="Ed-Fi LMS Loader" style="rounded=0;whiteSpace=wrap;html=1;fillColor=#dae8fc;strokeColor=#6c8ebf;gradientColor=#ffffff;" parent="qhOpbo7WFBdnRMEa5aBt-3" vertex="1">
                    <mxGeometry x="132" y="150" width="120" height="60" as="geometry"/>
                </mxCell>
                <mxCell id="qhOpbo7WFBdnRMEa5aBt-34" value="LMS Analyzer" style="rounded=0;whiteSpace=wrap;html=1;fillColor=#dae8fc;strokeColor=#6c8ebf;gradientColor=#ffffff;" parent="qhOpbo7WFBdnRMEa5aBt-3" vertex="1">
                    <mxGeometry x="272" y="210" width="120" height="60" as="geometry"/>
                </mxCell>
                <mxCell id="qhOpbo7WFBdnRMEa5aBt-72" value="Probably store all data in these CSVs - not partial data. Don't want someone w/o ODS to load in multiple files." style="shape=note;strokeWidth=2;fontSize=12;size=20;whiteSpace=wrap;html=1;fillColor=#fff2cc;strokeColor=#d6b656;fontColor=#666600;glass=0;" parent="qhOpbo7WFBdnRMEa5aBt-3" vertex="1">
                    <mxGeometry x="560" y="20" width="165" height="60" as="geometry"/>
                </mxCell>
                <mxCell id="qhOpbo7WFBdnRMEa5aBt-31" value="1.1 Get Data" style="edgeStyle=orthogonalEdgeStyle;rounded=0;orthogonalLoop=1;jettySize=auto;html=1;exitX=1;exitY=0.25;exitDx=0;exitDy=0;entryX=0.5;entryY=1;entryDx=0;entryDy=0;fontSize=12;" parent="qhOpbo7WFBdnRMEa5aBt-1" edge="1">
                    <mxGeometry relative="1" as="geometry">
                        <mxPoint x="249" y="185" as="sourcePoint"/>
                        <mxPoint x="278" y="110" as="targetPoint"/>
                    </mxGeometry>
                </mxCell>
                <mxCell id="qhOpbo7WFBdnRMEa5aBt-47" value="2.2 Push to LMS&lt;br&gt;API Service" style="edgeStyle=orthogonalEdgeStyle;rounded=0;orthogonalLoop=1;jettySize=auto;html=1;exitX=0.5;exitY=1;exitDx=0;exitDy=0;entryX=0.5;entryY=0;entryDx=0;entryDy=0;fontSize=12;" parent="qhOpbo7WFBdnRMEa5aBt-1" source="qhOpbo7WFBdnRMEa5aBt-45" target="qhOpbo7WFBdnRMEa5aBt-43" edge="1">
                    <mxGeometry x="0.7931" y="-10" relative="1" as="geometry">
                        <Array as="points">
                            <mxPoint x="192" y="480"/>
                            <mxPoint x="192" y="480"/>
                        </Array>
                        <mxPoint x="10" y="-10" as="offset"/>
                    </mxGeometry>
                </mxCell>
                <mxCell id="qhOpbo7WFBdnRMEa5aBt-4" value="Database Server" style="swimlane;html=1;startSize=20;horizontal=0;" parent="qhOpbo7WFBdnRMEa5aBt-1" vertex="1">
                    <mxGeometry y="460" width="725" height="220" as="geometry"/>
                </mxCell>
                <mxCell id="qhOpbo7WFBdnRMEa5aBt-27" value="ODS Database" style="shape=datastore;whiteSpace=wrap;html=1;gradientColor=#ffffff;verticalAlign=bottom;strokeColor=#999999;" parent="qhOpbo7WFBdnRMEa5aBt-4" vertex="1">
                    <mxGeometry x="340" y="25" width="230" height="140" as="geometry"/>
                </mxCell>
                <mxCell id="qhOpbo7WFBdnRMEa5aBt-40" value="Ed-Fi &lt;b&gt;ODS&lt;br&gt;&lt;/b&gt;API Service" style="rounded=0;whiteSpace=wrap;html=1;fillColor=#f5f5f5;strokeColor=#666666;fontColor=#333333;gradientColor=#ffffff;" parent="qhOpbo7WFBdnRMEa5aBt-4" vertex="1">
                    <mxGeometry x="591" y="65" width="120" height="60" as="geometry"/>
                </mxCell>
                <mxCell id="qhOpbo7WFBdnRMEa5aBt-48" value="2.2.1 Save to &lt;br&gt;Database" style="edgeStyle=orthogonalEdgeStyle;rounded=0;orthogonalLoop=1;jettySize=auto;html=1;exitX=1;exitY=0.5;exitDx=0;exitDy=0;entryX=0;entryY=0.5;entryDx=0;entryDy=0;fontSize=12;" parent="qhOpbo7WFBdnRMEa5aBt-4" source="qhOpbo7WFBdnRMEa5aBt-43" target="qhOpbo7WFBdnRMEa5aBt-30" edge="1">
                    <mxGeometry relative="1" as="geometry"/>
                </mxCell>
                <mxCell id="qhOpbo7WFBdnRMEa5aBt-42" style="edgeStyle=orthogonalEdgeStyle;rounded=0;orthogonalLoop=1;jettySize=auto;html=1;exitX=0;exitY=0.5;exitDx=0;exitDy=0;entryX=1;entryY=0.5;entryDx=0;entryDy=0;" parent="qhOpbo7WFBdnRMEa5aBt-4" source="qhOpbo7WFBdnRMEa5aBt-40" target="qhOpbo7WFBdnRMEa5aBt-29" edge="1">
                    <mxGeometry relative="1" as="geometry">
                        <Array as="points">
                            <mxPoint x="580" y="95"/>
                            <mxPoint x="580" y="120"/>
                        </Array>
                    </mxGeometry>
                </mxCell>
                <mxCell id="qhOpbo7WFBdnRMEa5aBt-51" style="edgeStyle=orthogonalEdgeStyle;rounded=0;orthogonalLoop=1;jettySize=auto;html=1;exitX=1;exitY=0.25;exitDx=0;exitDy=0;entryX=0.5;entryY=1;entryDx=0;entryDy=0;fontSize=12;" parent="qhOpbo7WFBdnRMEa5aBt-4" source="qhOpbo7WFBdnRMEa5aBt-50" target="qhOpbo7WFBdnRMEa5aBt-30" edge="1">
                    <mxGeometry relative="1" as="geometry"/>
                </mxCell>
                <mxCell id="qhOpbo7WFBdnRMEa5aBt-53" value="4.1 Get Data" style="edgeLabel;html=1;align=center;verticalAlign=middle;resizable=0;points=[];fontSize=12;" parent="qhOpbo7WFBdnRMEa5aBt-51" vertex="1" connectable="0">
                    <mxGeometry x="-0.4955" y="3" relative="1" as="geometry">
                        <mxPoint as="offset"/>
                    </mxGeometry>
                </mxCell>
                <mxCell id="qhOpbo7WFBdnRMEa5aBt-52" style="edgeStyle=orthogonalEdgeStyle;rounded=0;orthogonalLoop=1;jettySize=auto;html=1;exitX=1;exitY=0.75;exitDx=0;exitDy=0;entryX=0.75;entryY=1;entryDx=0;entryDy=0;fontSize=12;" parent="qhOpbo7WFBdnRMEa5aBt-4" source="qhOpbo7WFBdnRMEa5aBt-50" target="qhOpbo7WFBdnRMEa5aBt-29" edge="1">
                    <mxGeometry relative="1" as="geometry"/>
                </mxCell>
                <mxCell id="qhOpbo7WFBdnRMEa5aBt-54" value="4.2. Load Data When Matched" style="edgeLabel;html=1;align=center;verticalAlign=middle;resizable=0;points=[];fontSize=12;" parent="qhOpbo7WFBdnRMEa5aBt-52" vertex="1" connectable="0">
                    <mxGeometry x="0.0588" y="1" relative="1" as="geometry">
                        <mxPoint y="1" as="offset"/>
                    </mxGeometry>
                </mxCell>
                <mxCell id="qhOpbo7WFBdnRMEa5aBt-30" value="lms.Section" style="rounded=1;arcSize=10;whiteSpace=wrap;html=1;align=center;glass=0;fillColor=#dae8fc;strokeColor=#6c8ebf;gradientColor=#ffffff;" parent="qhOpbo7WFBdnRMEa5aBt-4" vertex="1">
                    <mxGeometry x="345" y="80" width="100" height="40" as="geometry"/>
                </mxCell>
                <mxCell id="qhOpbo7WFBdnRMEa5aBt-43" value="Ed-Fi &lt;b&gt;LMS&lt;br&gt;&lt;/b&gt;API Service" style="rounded=0;whiteSpace=wrap;html=1;fillColor=#dae8fc;strokeColor=#6c8ebf;gradientColor=#ffffff;" parent="qhOpbo7WFBdnRMEa5aBt-4" vertex="1">
                    <mxGeometry x="132" y="65" width="120" height="60" as="geometry"/>
                </mxCell>
                <mxCell id="qhOpbo7WFBdnRMEa5aBt-29" value="edfi.Section" style="rounded=1;arcSize=10;whiteSpace=wrap;html=1;align=center;glass=0;fillColor=#f5f5f5;strokeColor=#666666;fontColor=#333333;gradientColor=#ffffff;" parent="qhOpbo7WFBdnRMEa5aBt-4" vertex="1">
                    <mxGeometry x="461" y="100" width="100" height="40" as="geometry"/>
                </mxCell>
                <mxCell id="qhOpbo7WFBdnRMEa5aBt-50" value="LMS-to-ODS Loader" style="rounded=0;whiteSpace=wrap;html=1;fillColor=#dae8fc;strokeColor=#6c8ebf;gradientColor=#ffffff;" parent="qhOpbo7WFBdnRMEa5aBt-4" vertex="1">
                    <mxGeometry x="132" y="140" width="120" height="60" as="geometry"/>
                </mxCell>
                <mxCell id="qhOpbo7WFBdnRMEa5aBt-44" value="Showing only &quot;Section&quot; for simplicity" style="shape=note;strokeWidth=2;fontSize=12;size=20;whiteSpace=wrap;html=1;fillColor=#fff2cc;strokeColor=#d6b656;fontColor=#666600;glass=0;" parent="qhOpbo7WFBdnRMEa5aBt-4" vertex="1">
                    <mxGeometry x="570" y="150" width="100" height="60" as="geometry"/>
                </mxCell>
                <mxCell id="qhOpbo7WFBdnRMEa5aBt-68" value="4" style="edgeStyle=orthogonalEdgeStyle;rounded=0;jumpStyle=arc;jumpSize=20;orthogonalLoop=1;jettySize=auto;html=1;exitX=0.25;exitY=1;exitDx=0;exitDy=0;entryX=0;entryY=0.5;entryDx=0;entryDy=0;dashed=1;dashPattern=1 1;strokeColor=#000000;fontSize=12;" parent="qhOpbo7WFBdnRMEa5aBt-1" source="qhOpbo7WFBdnRMEa5aBt-58" target="qhOpbo7WFBdnRMEa5aBt-50" edge="1">
                    <mxGeometry relative="1" as="geometry"/>
                </mxCell>
                <mxCell id="qhOpbo7WFBdnRMEa5aBt-73" value="• Low-end solution: only write CSV. Analyzers work on CSV files.&lt;br&gt;&lt;br style=&quot;font-size: 14px&quot;&gt;• High-send solution: write to DBMS. Ed-Fi LMS Loader needs to be part of the high-end solution, using the DBMS not the CSV files.&lt;br&gt;&lt;br&gt;• DBMS options: SQLLite, DuckDB, PostgreSQL, SQL Server, ?. Investigate. Embeddable would be nice from a quick setup perspective." style="shape=note;strokeWidth=2;fontSize=14;size=20;whiteSpace=wrap;html=1;fillColor=#fff2cc;strokeColor=#d6b656;fontColor=#666600;glass=0;verticalAlign=top;" parent="1" vertex="1">
                    <mxGeometry x="-180" y="220" width="235" height="350" as="geometry"/>
                </mxCell>
            </root>
        </mxGraphModel>
    </diagram>
    <diagram id="s4toowUGwfu2rgKAHsBb" name="v2-1 - CSV Only">
        <mxGraphModel dx="1422" dy="723" grid="1" gridSize="10" guides="1" tooltips="1" connect="1" arrows="1" fold="1" page="1" pageScale="1" pageWidth="850" pageHeight="1100" math="0" shadow="0">
            <root>
                <mxCell id="Kadueb77vfWNWsVRg_dN-0"/>
                <mxCell id="Kadueb77vfWNWsVRg_dN-1" parent="Kadueb77vfWNWsVRg_dN-0"/>
                <mxCell id="xx_wZsg9ldjRTyl9zLKF-0" value="Ed-Fi LMS Export to CSV" style="swimlane;html=1;childLayout=stackLayout;resizeParent=1;resizeParentMax=0;horizontal=1;startSize=20;horizontalStack=0;" parent="Kadueb77vfWNWsVRg_dN-1" vertex="1">
                    <mxGeometry x="80" y="80" width="725" height="460" as="geometry">
                        <mxRectangle x="180" y="210" width="60" height="20" as="alternateBounds"/>
                    </mxGeometry>
                </mxCell>
                <mxCell id="xx_wZsg9ldjRTyl9zLKF-1" value="LMS" style="swimlane;html=1;startSize=20;horizontal=0;" parent="xx_wZsg9ldjRTyl9zLKF-0" vertex="1">
                    <mxGeometry y="20" width="725" height="150" as="geometry"/>
                </mxCell>
                <mxCell id="xx_wZsg9ldjRTyl9zLKF-2" value="API Service" style="rounded=0;whiteSpace=wrap;html=1;fillColor=#f5f5f5;strokeColor=#666666;fontColor=#333333;gradientColor=#ffffff;" parent="xx_wZsg9ldjRTyl9zLKF-1" vertex="1">
                    <mxGeometry x="221" y="30" width="120" height="60" as="geometry"/>
                </mxCell>
                <mxCell id="xx_wZsg9ldjRTyl9zLKF-29" value="1.1 Get Data" style="edgeStyle=orthogonalEdgeStyle;rounded=0;orthogonalLoop=1;jettySize=auto;html=1;exitX=0.75;exitY=0;exitDx=0;exitDy=0;entryX=0.5;entryY=1;entryDx=0;entryDy=0;fontSize=12;" parent="xx_wZsg9ldjRTyl9zLKF-0" source="xx_wZsg9ldjRTyl9zLKF-9" edge="1">
                    <mxGeometry x="-0.3836" y="-9" relative="1" as="geometry">
                        <mxPoint x="249" y="185" as="sourcePoint"/>
                        <mxPoint x="278" y="110" as="targetPoint"/>
                        <mxPoint x="8" y="-14" as="offset"/>
                    </mxGeometry>
                </mxCell>
                <mxCell id="xx_wZsg9ldjRTyl9zLKF-4" value="App Server" style="swimlane;html=1;startSize=20;horizontal=0;" parent="xx_wZsg9ldjRTyl9zLKF-0" vertex="1">
                    <mxGeometry y="170" width="725" height="290" as="geometry"/>
                </mxCell>
                <mxCell id="xx_wZsg9ldjRTyl9zLKF-5" value="CSV Files" style="rounded=0;whiteSpace=wrap;html=1;shadow=0;glass=0;sketch=0;strokeColor=#999999;gradientColor=none;fontSize=12;verticalAlign=bottom;" parent="xx_wZsg9ldjRTyl9zLKF-4" vertex="1">
                    <mxGeometry x="342" y="20" width="349" height="160" as="geometry"/>
                </mxCell>
                <mxCell id="xx_wZsg9ldjRTyl9zLKF-6" value="etc." style="text;html=1;strokeColor=none;fillColor=none;align=center;verticalAlign=middle;whiteSpace=wrap;rounded=0;" parent="xx_wZsg9ldjRTyl9zLKF-4" vertex="1">
                    <mxGeometry x="542" y="80" width="40" height="20" as="geometry"/>
                </mxCell>
                <mxCell id="xx_wZsg9ldjRTyl9zLKF-7" style="edgeStyle=orthogonalEdgeStyle;rounded=0;orthogonalLoop=1;jettySize=auto;html=1;exitX=1;exitY=0.75;exitDx=0;exitDy=0;entryX=0;entryY=0.5;entryDx=0;entryDy=0;" parent="xx_wZsg9ldjRTyl9zLKF-4" source="xx_wZsg9ldjRTyl9zLKF-9" target="xx_wZsg9ldjRTyl9zLKF-5" edge="1">
                    <mxGeometry relative="1" as="geometry">
                        <mxPoint x="270" y="120" as="targetPoint"/>
                    </mxGeometry>
                </mxCell>
                <mxCell id="xx_wZsg9ldjRTyl9zLKF-8" value="1.3 Export CSV" style="edgeLabel;html=1;align=center;verticalAlign=middle;resizable=0;points=[];" parent="xx_wZsg9ldjRTyl9zLKF-7" vertex="1" connectable="0">
                    <mxGeometry x="0.2053" y="-5" relative="1" as="geometry">
                        <mxPoint as="offset"/>
                    </mxGeometry>
                </mxCell>
                <mxCell id="xx_wZsg9ldjRTyl9zLKF-49" value="1.2" style="edgeStyle=orthogonalEdgeStyle;rounded=0;orthogonalLoop=1;jettySize=auto;html=1;" parent="xx_wZsg9ldjRTyl9zLKF-4" source="xx_wZsg9ldjRTyl9zLKF-9" target="xx_wZsg9ldjRTyl9zLKF-48" edge="1">
                    <mxGeometry relative="1" as="geometry">
                        <Array as="points">
                            <mxPoint x="150" y="144"/>
                        </Array>
                    </mxGeometry>
                </mxCell>
                <mxCell id="xx_wZsg9ldjRTyl9zLKF-9" value="LMS Extractor" style="rounded=0;whiteSpace=wrap;html=1;fillColor=#dae8fc;strokeColor=#6c8ebf;gradientColor=#ffffff;" parent="xx_wZsg9ldjRTyl9zLKF-4" vertex="1">
                    <mxGeometry x="132" y="30" width="120" height="60" as="geometry"/>
                </mxCell>
                <mxCell id="xx_wZsg9ldjRTyl9zLKF-10" value="Assignments" style="shape=parallelogram;html=1;strokeWidth=2;perimeter=parallelogramPerimeter;whiteSpace=wrap;rounded=1;arcSize=12;size=0.23;fillColor=#dae8fc;strokeColor=#6c8ebf;gradientColor=#ffffff;" parent="xx_wZsg9ldjRTyl9zLKF-4" vertex="1">
                    <mxGeometry x="462" y="30" width="100" height="60" as="geometry"/>
                </mxCell>
                <mxCell id="xx_wZsg9ldjRTyl9zLKF-11" value="1" style="edgeStyle=orthogonalEdgeStyle;rounded=0;orthogonalLoop=1;jettySize=auto;html=1;exitX=0.845;exitY=1;exitDx=0;exitDy=0;entryX=0;entryY=0.5;entryDx=0;entryDy=0;fontSize=12;exitPerimeter=0;" parent="xx_wZsg9ldjRTyl9zLKF-4" source="xx_wZsg9ldjRTyl9zLKF-15" target="xx_wZsg9ldjRTyl9zLKF-9" edge="1">
                    <mxGeometry relative="1" as="geometry">
                        <Array as="points">
                            <mxPoint x="120" y="58"/>
                            <mxPoint x="120" y="60"/>
                        </Array>
                    </mxGeometry>
                </mxCell>
                <mxCell id="xx_wZsg9ldjRTyl9zLKF-13" style="edgeStyle=orthogonalEdgeStyle;rounded=0;orthogonalLoop=1;jettySize=auto;html=1;exitX=0.25;exitY=1;exitDx=0;exitDy=0;fontSize=12;jumpStyle=arc;jumpSize=20;dashed=1;dashPattern=1 1;entryX=0;entryY=0.5;entryDx=0;entryDy=0;" parent="xx_wZsg9ldjRTyl9zLKF-4" source="xx_wZsg9ldjRTyl9zLKF-15" target="xx_wZsg9ldjRTyl9zLKF-27" edge="1">
                    <mxGeometry relative="1" as="geometry">
                        <Array as="points">
                            <mxPoint x="130" y="205"/>
                            <mxPoint x="130" y="230"/>
                        </Array>
                        <mxPoint x="160" y="200" as="targetPoint"/>
                    </mxGeometry>
                </mxCell>
                <mxCell id="xx_wZsg9ldjRTyl9zLKF-14" value="2 (optional)" style="edgeLabel;html=1;align=center;verticalAlign=middle;resizable=0;points=[];fontSize=12;" parent="xx_wZsg9ldjRTyl9zLKF-13" vertex="1" connectable="0">
                    <mxGeometry x="0.3976" y="-1" relative="1" as="geometry">
                        <mxPoint x="-10.32" y="-31" as="offset"/>
                    </mxGeometry>
                </mxCell>
                <mxCell id="xx_wZsg9ldjRTyl9zLKF-15" value="Orchestration / Scheduler Service" style="rounded=0;whiteSpace=wrap;html=1;fillColor=#dae8fc;strokeColor=#6c8ebf;gradientColor=#ffffff;rotation=-90;" parent="xx_wZsg9ldjRTyl9zLKF-4" vertex="1">
                    <mxGeometry x="-55" y="115" width="240" height="60" as="geometry"/>
                </mxCell>
                <mxCell id="xx_wZsg9ldjRTyl9zLKF-16" value="Submissions" style="shape=parallelogram;html=1;strokeWidth=2;perimeter=parallelogramPerimeter;whiteSpace=wrap;rounded=1;arcSize=12;size=0.23;fillColor=#dae8fc;strokeColor=#6c8ebf;gradientColor=#ffffff;" parent="xx_wZsg9ldjRTyl9zLKF-4" vertex="1">
                    <mxGeometry x="442" y="100" width="100" height="60" as="geometry"/>
                </mxCell>
                <mxCell id="xx_wZsg9ldjRTyl9zLKF-17" value="Students" style="shape=parallelogram;html=1;strokeWidth=2;perimeter=parallelogramPerimeter;whiteSpace=wrap;rounded=1;arcSize=12;size=0.23;fillColor=#dae8fc;strokeColor=#6c8ebf;gradientColor=#ffffff;" parent="xx_wZsg9ldjRTyl9zLKF-4" vertex="1">
                    <mxGeometry x="352" y="100" width="100" height="60" as="geometry"/>
                </mxCell>
                <mxCell id="xx_wZsg9ldjRTyl9zLKF-18" value="Sections" style="shape=parallelogram;html=1;strokeWidth=2;perimeter=parallelogramPerimeter;whiteSpace=wrap;rounded=1;arcSize=12;size=0.23;fillColor=#dae8fc;strokeColor=#6c8ebf;gradientColor=#ffffff;" parent="xx_wZsg9ldjRTyl9zLKF-4" vertex="1">
                    <mxGeometry x="372" y="30" width="100" height="60" as="geometry"/>
                </mxCell>
                <mxCell id="xx_wZsg9ldjRTyl9zLKF-19" value="2.1 Read Data" style="edgeStyle=orthogonalEdgeStyle;rounded=0;orthogonalLoop=1;jettySize=auto;html=1;exitX=1;exitY=0.25;exitDx=0;exitDy=0;entryX=0.5;entryY=1;entryDx=0;entryDy=0;fontSize=12;" parent="xx_wZsg9ldjRTyl9zLKF-4" source="xx_wZsg9ldjRTyl9zLKF-27" target="xx_wZsg9ldjRTyl9zLKF-5" edge="1">
                    <mxGeometry relative="1" as="geometry">
                        <mxPoint x="490" y="200" as="targetPoint"/>
                    </mxGeometry>
                </mxCell>
                <mxCell id="xx_wZsg9ldjRTyl9zLKF-20" style="edgeStyle=orthogonalEdgeStyle;rounded=0;orthogonalLoop=1;jettySize=auto;html=1;exitX=0.75;exitY=1;exitDx=0;exitDy=0;entryX=0.5;entryY=1;entryDx=0;entryDy=0;" parent="xx_wZsg9ldjRTyl9zLKF-4" source="xx_wZsg9ldjRTyl9zLKF-27" target="xx_wZsg9ldjRTyl9zLKF-25" edge="1">
                    <mxGeometry relative="1" as="geometry">
                        <mxPoint x="588.3705263157894" y="160" as="targetPoint"/>
                        <Array as="points">
                            <mxPoint x="260" y="280"/>
                            <mxPoint x="621" y="280"/>
                        </Array>
                    </mxGeometry>
                </mxCell>
                <mxCell id="xx_wZsg9ldjRTyl9zLKF-21" value="2.3 Store output" style="edgeLabel;html=1;align=center;verticalAlign=middle;resizable=0;points=[];fontSize=12;" parent="xx_wZsg9ldjRTyl9zLKF-20" vertex="1" connectable="0">
                    <mxGeometry x="-0.5045" y="5" relative="1" as="geometry">
                        <mxPoint as="offset"/>
                    </mxGeometry>
                </mxCell>
                <mxCell id="xx_wZsg9ldjRTyl9zLKF-22" value="2.2 Analyze" style="edgeStyle=orthogonalEdgeStyle;rounded=0;orthogonalLoop=1;jettySize=auto;html=1;exitX=1;exitY=0.5;exitDx=0;exitDy=0;entryX=0.992;entryY=0.831;entryDx=0;entryDy=0;fontSize=12;entryPerimeter=0;" parent="xx_wZsg9ldjRTyl9zLKF-4" source="xx_wZsg9ldjRTyl9zLKF-27" target="xx_wZsg9ldjRTyl9zLKF-27" edge="1">
                    <mxGeometry relative="1" as="geometry">
                        <Array as="points">
                            <mxPoint x="370" y="230"/>
                            <mxPoint x="370" y="250"/>
                        </Array>
                        <mxPoint x="391" y="240" as="sourcePoint"/>
                        <mxPoint x="391" y="255" as="targetPoint"/>
                    </mxGeometry>
                </mxCell>
                <mxCell id="xx_wZsg9ldjRTyl9zLKF-25" value="Analysis" style="shape=parallelogram;html=1;strokeWidth=2;perimeter=parallelogramPerimeter;whiteSpace=wrap;rounded=1;arcSize=12;size=0.23;fillColor=#dae8fc;strokeColor=#6c8ebf;gradientColor=#ffffff;" parent="xx_wZsg9ldjRTyl9zLKF-4" vertex="1">
                    <mxGeometry x="571" y="100" width="100" height="60" as="geometry"/>
                </mxCell>
                <mxCell id="xx_wZsg9ldjRTyl9zLKF-48" value="Log / sync data" style="shape=cylinder3;whiteSpace=wrap;html=1;boundedLbl=1;backgroundOutline=1;size=15;fillColor=#dae8fc;strokeColor=#6c8ebf;gradientColor=#ffffff;" parent="xx_wZsg9ldjRTyl9zLKF-4" vertex="1">
                    <mxGeometry x="180" y="110" width="60" height="60" as="geometry"/>
                </mxCell>
                <mxCell id="xx_wZsg9ldjRTyl9zLKF-27" value="LMS Analyzer" style="rounded=0;whiteSpace=wrap;html=1;fillColor=#dae8fc;strokeColor=#6c8ebf;gradientColor=#ffffff;" parent="xx_wZsg9ldjRTyl9zLKF-4" vertex="1">
                    <mxGeometry x="170" y="200" width="120" height="60" as="geometry"/>
                </mxCell>
                <mxCell id="Ts7rXZ-M3JhkSBhxftLt-0" value="" style="group" vertex="1" connectable="0" parent="Kadueb77vfWNWsVRg_dN-1">
                    <mxGeometry x="830" y="400" width="130" height="70" as="geometry"/>
                </mxCell>
                <mxCell id="Ts7rXZ-M3JhkSBhxftLt-1" value="Excel, Sheets, Reporting, BI Tools" style="rounded=0;whiteSpace=wrap;html=1;fillColor=#f5f5f5;strokeColor=#666666;fontColor=#333333;gradientColor=#ffffff;" vertex="1" parent="Ts7rXZ-M3JhkSBhxftLt-0">
                    <mxGeometry x="10" width="120" height="60" as="geometry"/>
                </mxCell>
                <mxCell id="Ts7rXZ-M3JhkSBhxftLt-2" value="Excel, Sheets, Reporting, BI Tools" style="rounded=0;whiteSpace=wrap;html=1;fillColor=#f5f5f5;strokeColor=#666666;fontColor=#333333;gradientColor=#ffffff;" vertex="1" parent="Ts7rXZ-M3JhkSBhxftLt-0">
                    <mxGeometry y="10" width="120" height="60" as="geometry"/>
                </mxCell>
                <mxCell id="Ts7rXZ-M3JhkSBhxftLt-3" style="edgeStyle=orthogonalEdgeStyle;rounded=1;orthogonalLoop=1;jettySize=auto;html=1;entryX=1;entryY=0.75;entryDx=0;entryDy=0;" edge="1" parent="Kadueb77vfWNWsVRg_dN-1" source="Ts7rXZ-M3JhkSBhxftLt-2" target="xx_wZsg9ldjRTyl9zLKF-5">
                    <mxGeometry relative="1" as="geometry"/>
                </mxCell>
            </root>
        </mxGraphModel>
    </diagram>
    <diagram id="SsGj9hofZm1MgWkyaw5Q" name="v2-2 - DBMS">
        <mxGraphModel dx="1422" dy="723" grid="1" gridSize="10" guides="1" tooltips="1" connect="1" arrows="1" fold="1" page="1" pageScale="1" pageWidth="850" pageHeight="1100" math="0" shadow="0">
            <root>
                <mxCell id="lK5FX1PismGZE8vzXaVx-0"/>
                <mxCell id="lK5FX1PismGZE8vzXaVx-1" parent="lK5FX1PismGZE8vzXaVx-0"/>
                <mxCell id="NpUmDAL4Uxyap87xEk5z-0" value="Ed-Fi LMS Export to Relational Database" style="swimlane;html=1;childLayout=stackLayout;resizeParent=1;resizeParentMax=0;horizontal=1;startSize=30;horizontalStack=0;" parent="lK5FX1PismGZE8vzXaVx-1" vertex="1">
                    <mxGeometry x="80" y="80" width="550" height="880" as="geometry">
                        <mxRectangle x="180" y="210" width="60" height="20" as="alternateBounds"/>
                    </mxGeometry>
                </mxCell>
                <mxCell id="NpUmDAL4Uxyap87xEk5z-1" value="LMS" style="swimlane;html=1;startSize=20;horizontal=0;" parent="NpUmDAL4Uxyap87xEk5z-0" vertex="1">
                    <mxGeometry y="30" width="550" height="150" as="geometry"/>
                </mxCell>
                <mxCell id="NpUmDAL4Uxyap87xEk5z-2" value="API Service" style="rounded=0;whiteSpace=wrap;html=1;fillColor=#f5f5f5;strokeColor=#666666;fontColor=#333333;gradientColor=#ffffff;" parent="NpUmDAL4Uxyap87xEk5z-1" vertex="1">
                    <mxGeometry x="140" y="40" width="120" height="60" as="geometry"/>
                </mxCell>
                <mxCell id="NpUmDAL4Uxyap87xEk5z-3" value="1.1 Get Data" style="edgeStyle=orthogonalEdgeStyle;rounded=0;orthogonalLoop=1;jettySize=auto;html=1;exitX=0.5;exitY=0;exitDx=0;exitDy=0;fontSize=12;entryX=0.5;entryY=1;entryDx=0;entryDy=0;" parent="NpUmDAL4Uxyap87xEk5z-0" source="NpUmDAL4Uxyap87xEk5z-6" target="NpUmDAL4Uxyap87xEk5z-2" edge="1">
                    <mxGeometry x="-0.3188" y="10" relative="1" as="geometry">
                        <mxPoint x="222" y="210" as="sourcePoint"/>
                        <mxPoint x="278" y="130" as="targetPoint"/>
                        <mxPoint as="offset"/>
                        <Array as="points">
                            <mxPoint x="198" y="200"/>
                            <mxPoint x="200" y="200"/>
                        </Array>
                    </mxGeometry>
                </mxCell>
                <mxCell id="NpUmDAL4Uxyap87xEk5z-4" value="&lt;i&gt;Alternative&lt;/i&gt;&lt;br&gt;3.1 Write to RDBMS" style="edgeStyle=orthogonalEdgeStyle;rounded=0;orthogonalLoop=1;jettySize=auto;html=1;entryX=0.5;entryY=0;entryDx=0;entryDy=0;exitX=0.75;exitY=1;exitDx=0;exitDy=0;" parent="NpUmDAL4Uxyap87xEk5z-0" source="NpUmDAL4Uxyap87xEk5z-16" target="NpUmDAL4Uxyap87xEk5z-21" edge="1">
                    <mxGeometry x="0.3119" y="15" relative="1" as="geometry">
                        <mxPoint x="237" y="549.5" as="targetPoint"/>
                        <Array as="points">
                            <mxPoint x="312" y="510"/>
                            <mxPoint x="345" y="510"/>
                        </Array>
                        <mxPoint as="offset"/>
                    </mxGeometry>
                </mxCell>
                <object label="App Server" id="NpUmDAL4Uxyap87xEk5z-5">
                    <mxCell style="swimlane;html=1;startSize=20;horizontal=0;" parent="NpUmDAL4Uxyap87xEk5z-0" vertex="1">
                        <mxGeometry y="180" width="550" height="400" as="geometry"/>
                    </mxCell>
                </object>
                <mxCell id="NpUmDAL4Uxyap87xEk5z-6" value="Extract and Analyzer Processes" style="shape=process;whiteSpace=wrap;html=1;backgroundOutline=1;fillColor=#dae8fc;strokeColor=#6c8ebf;gradientColor=#ffffff;" parent="NpUmDAL4Uxyap87xEk5z-5" vertex="1">
                    <mxGeometry x="140.5" y="40" width="120" height="60" as="geometry"/>
                </mxCell>
                <mxCell id="iftB4L2ZJiPd_MJmwwHr-2" value="Extract and Analyzer Processes" style="shape=process;whiteSpace=wrap;html=1;backgroundOutline=1;fillColor=#f5f5f5;strokeColor=#666666;fontColor=#333333;" parent="NpUmDAL4Uxyap87xEk5z-5" vertex="1">
                    <mxGeometry x="140.5" y="40" width="120" height="60" as="geometry"/>
                </mxCell>
                <mxCell id="iftB4L2ZJiPd_MJmwwHr-1" value="Orchestration / Scheduler Service" style="rounded=0;whiteSpace=wrap;html=1;fillColor=#dae8fc;strokeColor=#6c8ebf;rotation=-90;" parent="NpUmDAL4Uxyap87xEk5z-5" vertex="1">
                    <mxGeometry x="-116.24" y="176.26" width="362.5" height="60" as="geometry"/>
                </mxCell>
                <mxCell id="iftB4L2ZJiPd_MJmwwHr-0" value="&lt;span&gt;Ed-Fi LMS Loader&lt;/span&gt;" style="rounded=0;whiteSpace=wrap;html=1;fillColor=#dae8fc;strokeColor=#6c8ebf;" parent="NpUmDAL4Uxyap87xEk5z-5" vertex="1">
                    <mxGeometry x="222" y="210" width="120" height="60" as="geometry"/>
                </mxCell>
                <mxCell id="NpUmDAL4Uxyap87xEk5z-7" value="CSV Files" style="rounded=0;whiteSpace=wrap;html=1;shadow=0;glass=0;sketch=0;strokeColor=#999999;gradientColor=none;fontSize=12;verticalAlign=bottom;" parent="NpUmDAL4Uxyap87xEk5z-5" vertex="1">
                    <mxGeometry x="342" y="50" width="188" height="130" as="geometry"/>
                </mxCell>
                <mxCell id="NpUmDAL4Uxyap87xEk5z-8" value="1.2, 2.2 Write&lt;br&gt;to CSV" style="edgeStyle=orthogonalEdgeStyle;rounded=0;orthogonalLoop=1;jettySize=auto;html=1;exitX=1;exitY=0.5;exitDx=0;exitDy=0;entryX=0;entryY=0.5;entryDx=0;entryDy=0;" parent="NpUmDAL4Uxyap87xEk5z-5" source="NpUmDAL4Uxyap87xEk5z-6" target="NpUmDAL4Uxyap87xEk5z-7" edge="1">
                    <mxGeometry relative="1" as="geometry">
                        <mxPoint x="270" y="120" as="targetPoint"/>
                        <mxPoint x="252" y="75" as="sourcePoint"/>
                    </mxGeometry>
                </mxCell>
                <mxCell id="NpUmDAL4Uxyap87xEk5z-9" value="Run (1) Extractor&lt;br&gt;and (2) optional&lt;br&gt;Analyzers" style="edgeStyle=orthogonalEdgeStyle;rounded=0;orthogonalLoop=1;jettySize=auto;html=1;entryX=0.5;entryY=1;entryDx=0;entryDy=0;exitX=0.73;exitY=1;exitDx=0;exitDy=0;exitPerimeter=0;" parent="NpUmDAL4Uxyap87xEk5z-5" source="NpUmDAL4Uxyap87xEk5z-14" target="NpUmDAL4Uxyap87xEk5z-6" edge="1">
                    <mxGeometry x="-0.0639" y="-20" relative="1" as="geometry">
                        <mxPoint as="offset"/>
                    </mxGeometry>
                </mxCell>
                <mxCell id="NpUmDAL4Uxyap87xEk5z-11" value="" style="shape=parallelogram;html=1;strokeWidth=2;perimeter=parallelogramPerimeter;whiteSpace=wrap;rounded=1;arcSize=12;size=0.23;fillColor=#f5f5f5;strokeColor=#666666;fontColor=#333333;" parent="NpUmDAL4Uxyap87xEk5z-5" vertex="1">
                    <mxGeometry x="390" y="70" width="100" height="60" as="geometry"/>
                </mxCell>
                <mxCell id="NpUmDAL4Uxyap87xEk5z-12" value="etc." style="text;html=1;strokeColor=none;fillColor=none;align=center;verticalAlign=middle;whiteSpace=wrap;rounded=0;" parent="NpUmDAL4Uxyap87xEk5z-5" vertex="1">
                    <mxGeometry x="490" y="90" width="40" height="20" as="geometry"/>
                </mxCell>
                <mxCell id="NpUmDAL4Uxyap87xEk5z-13" value="Sections" style="shape=parallelogram;html=1;strokeWidth=2;perimeter=parallelogramPerimeter;whiteSpace=wrap;rounded=1;arcSize=12;size=0.23;fillColor=#f5f5f5;strokeColor=#666666;fontColor=#333333;" parent="NpUmDAL4Uxyap87xEk5z-5" vertex="1">
                    <mxGeometry x="365" y="80" width="100" height="60" as="geometry"/>
                </mxCell>
                <mxCell id="NpUmDAL4Uxyap87xEk5z-14" value="Orchestration / Scheduler Service" style="rounded=0;whiteSpace=wrap;html=1;fillColor=#f5f5f5;strokeColor=#666666;rotation=-90;fontColor=#333333;gradientColor=#ffffff;" parent="NpUmDAL4Uxyap87xEk5z-5" vertex="1">
                    <mxGeometry x="-116.24" y="176.26" width="362.5" height="60" as="geometry"/>
                </mxCell>
                <mxCell id="NpUmDAL4Uxyap87xEk5z-15" value="3. Write to Ed-Fi&lt;br&gt;LMS Data Store API" style="edgeStyle=orthogonalEdgeStyle;rounded=0;orthogonalLoop=1;jettySize=auto;html=1;exitX=0.5;exitY=1;exitDx=0;exitDy=0;" parent="NpUmDAL4Uxyap87xEk5z-5" source="NpUmDAL4Uxyap87xEk5z-14" target="NpUmDAL4Uxyap87xEk5z-16" edge="1">
                    <mxGeometry relative="1" as="geometry"/>
                </mxCell>
                <mxCell id="NpUmDAL4Uxyap87xEk5z-16" value="&lt;span&gt;Ed-Fi LMS Loader&lt;/span&gt;" style="rounded=0;whiteSpace=wrap;html=1;fillColor=#dae8fc;strokeColor=#6c8ebf;gradientColor=#ffffff;" parent="NpUmDAL4Uxyap87xEk5z-5" vertex="1">
                    <mxGeometry x="222" y="210" width="120" height="60" as="geometry"/>
                </mxCell>
                <mxCell id="NpUmDAL4Uxyap87xEk5z-17" value="3.1 Read CSVs" style="edgeStyle=orthogonalEdgeStyle;rounded=0;orthogonalLoop=1;jettySize=auto;html=1;exitX=1;exitY=0.5;exitDx=0;exitDy=0;entryX=0.269;entryY=1.007;entryDx=0;entryDy=0;entryPerimeter=0;" parent="NpUmDAL4Uxyap87xEk5z-5" source="NpUmDAL4Uxyap87xEk5z-16" target="NpUmDAL4Uxyap87xEk5z-7" edge="1">
                    <mxGeometry relative="1" as="geometry">
                        <mxPoint x="352" y="110" as="targetPoint"/>
                        <mxPoint x="267.5" y="80" as="sourcePoint"/>
                    </mxGeometry>
                </mxCell>
                <object label="Web Server" id="NpUmDAL4Uxyap87xEk5z-19">
                    <mxCell style="swimlane;html=1;startSize=20;horizontal=0;" parent="NpUmDAL4Uxyap87xEk5z-0" vertex="1">
                        <mxGeometry y="580" width="550" height="110" as="geometry"/>
                    </mxCell>
                </object>
                <mxCell id="NpUmDAL4Uxyap87xEk5z-21" value="Ed-Fi &lt;b&gt;LMS&lt;br&gt;&lt;/b&gt;Data Store &lt;br&gt;API Service" style="rounded=0;whiteSpace=wrap;html=1;fillColor=#fff2cc;strokeColor=#d6b656;gradientColor=#ffffff;dashed=1;" parent="NpUmDAL4Uxyap87xEk5z-19" vertex="1">
                    <mxGeometry x="285" y="25" width="120" height="60" as="geometry"/>
                </mxCell>
                <object label="Database Server" id="NpUmDAL4Uxyap87xEk5z-22">
                    <mxCell style="swimlane;html=1;startSize=20;horizontal=0;" parent="NpUmDAL4Uxyap87xEk5z-0" vertex="1">
                        <mxGeometry y="690" width="550" height="190" as="geometry"/>
                    </mxCell>
                </object>
                <mxCell id="NpUmDAL4Uxyap87xEk5z-23" value="Any Database" style="shape=datastore;whiteSpace=wrap;html=1;gradientColor=#ffffff;verticalAlign=bottom;strokeColor=#999999;" parent="NpUmDAL4Uxyap87xEk5z-22" vertex="1">
                    <mxGeometry x="100" y="37" width="230" height="140" as="geometry"/>
                </mxCell>
                <mxCell id="NpUmDAL4Uxyap87xEk5z-24" value="lms.Section" style="rounded=1;arcSize=10;whiteSpace=wrap;html=1;align=center;glass=0;fillColor=#dae8fc;strokeColor=#6c8ebf;gradientColor=#ffffff;" parent="NpUmDAL4Uxyap87xEk5z-22" vertex="1">
                    <mxGeometry x="105" y="95" width="100" height="40" as="geometry"/>
                </mxCell>
                <mxCell id="NpUmDAL4Uxyap87xEk5z-25" value="lms.Assignments" style="rounded=1;arcSize=10;whiteSpace=wrap;html=1;align=center;glass=0;fillColor=#dae8fc;strokeColor=#6c8ebf;gradientColor=#ffffff;" parent="NpUmDAL4Uxyap87xEk5z-22" vertex="1">
                    <mxGeometry x="220" y="95" width="100" height="40" as="geometry"/>
                </mxCell>
                <mxCell id="NpUmDAL4Uxyap87xEk5z-26" value="etc." style="text;html=1;strokeColor=none;fillColor=none;align=center;verticalAlign=middle;whiteSpace=wrap;rounded=0;" parent="NpUmDAL4Uxyap87xEk5z-22" vertex="1">
                    <mxGeometry x="195" y="135" width="40" height="20" as="geometry"/>
                </mxCell>
                <mxCell id="NpUmDAL4Uxyap87xEk5z-31" style="edgeStyle=orthogonalEdgeStyle;rounded=0;orthogonalLoop=1;jettySize=auto;html=1;entryX=0.85;entryY=0.05;entryDx=0;entryDy=0;entryPerimeter=0;" parent="NpUmDAL4Uxyap87xEk5z-0" source="NpUmDAL4Uxyap87xEk5z-21" target="NpUmDAL4Uxyap87xEk5z-23" edge="1">
                    <mxGeometry relative="1" as="geometry"/>
                </mxCell>
                <mxCell id="6sBmY-2C_3od5xYO4H-L-5" value="&lt;span style=&quot;color: rgb(0 , 0 , 0) ; font-family: &amp;#34;helvetica&amp;#34; ; font-size: 11px ; font-style: normal ; font-weight: 400 ; letter-spacing: normal ; text-align: center ; text-indent: 0px ; text-transform: none ; word-spacing: 0px ; background-color: rgb(255 , 255 , 255) ; display: inline ; float: none&quot;&gt;3.1 Write to RDBMS&lt;/span&gt;" style="edgeStyle=orthogonalEdgeStyle;rounded=1;orthogonalLoop=1;jettySize=auto;html=1;entryX=0.452;entryY=0.029;entryDx=0;entryDy=0;entryPerimeter=0;exitX=0.25;exitY=1;exitDx=0;exitDy=0;" edge="1" parent="NpUmDAL4Uxyap87xEk5z-0" source="NpUmDAL4Uxyap87xEk5z-16" target="NpUmDAL4Uxyap87xEk5z-23">
                    <mxGeometry x="-0.0397" y="-14" relative="1" as="geometry">
                        <Array as="points">
                            <mxPoint x="252" y="540"/>
                            <mxPoint x="204" y="540"/>
                        </Array>
                        <mxPoint as="offset"/>
                    </mxGeometry>
                </mxCell>
                <mxCell id="6sBmY-2C_3od5xYO4H-L-0" value="" style="group" vertex="1" connectable="0" parent="lK5FX1PismGZE8vzXaVx-1">
                    <mxGeometry x="650" y="840" width="130" height="70" as="geometry"/>
                </mxCell>
                <mxCell id="6sBmY-2C_3od5xYO4H-L-1" value="Excel, Sheets, Reporting, BI Tools" style="rounded=0;whiteSpace=wrap;html=1;fillColor=#f5f5f5;strokeColor=#666666;fontColor=#333333;gradientColor=#ffffff;" vertex="1" parent="6sBmY-2C_3od5xYO4H-L-0">
                    <mxGeometry x="10" width="120" height="60" as="geometry"/>
                </mxCell>
                <mxCell id="6sBmY-2C_3od5xYO4H-L-2" value="Excel, Sheets, Reporting, BI Tools" style="rounded=0;whiteSpace=wrap;html=1;fillColor=#f5f5f5;strokeColor=#666666;fontColor=#333333;gradientColor=#ffffff;" vertex="1" parent="6sBmY-2C_3od5xYO4H-L-0">
                    <mxGeometry y="10" width="120" height="60" as="geometry"/>
                </mxCell>
                <mxCell id="6sBmY-2C_3od5xYO4H-L-3" style="edgeStyle=orthogonalEdgeStyle;rounded=1;orthogonalLoop=1;jettySize=auto;html=1;entryX=1;entryY=0.7;entryDx=0;entryDy=0;" edge="1" parent="lK5FX1PismGZE8vzXaVx-1" source="6sBmY-2C_3od5xYO4H-L-2" target="NpUmDAL4Uxyap87xEk5z-23">
                    <mxGeometry relative="1" as="geometry"/>
                </mxCell>
                <mxCell id="6sBmY-2C_3od5xYO4H-L-4" style="edgeStyle=orthogonalEdgeStyle;rounded=1;orthogonalLoop=1;jettySize=auto;html=1;entryX=1;entryY=0.75;entryDx=0;entryDy=0;" edge="1" parent="lK5FX1PismGZE8vzXaVx-1" source="6sBmY-2C_3od5xYO4H-L-1" target="NpUmDAL4Uxyap87xEk5z-7">
                    <mxGeometry relative="1" as="geometry">
                        <Array as="points">
                            <mxPoint x="700" y="408"/>
                        </Array>
                    </mxGeometry>
                </mxCell>
            </root>
        </mxGraphModel>
    </diagram>
    <diagram name="v2-3 - to ODS" id="nPNWoxkxd5XTjoOF8FuP">
        <mxGraphModel dx="1422" dy="723" grid="1" gridSize="10" guides="1" tooltips="1" connect="1" arrows="1" fold="1" page="1" pageScale="1" pageWidth="850" pageHeight="1100" math="0" shadow="0">
            <root>
                <mxCell id="oSZAAdP2Cu10eBQa7mfy-0"/>
                <mxCell id="oSZAAdP2Cu10eBQa7mfy-1" parent="oSZAAdP2Cu10eBQa7mfy-0"/>
                <mxCell id="oSZAAdP2Cu10eBQa7mfy-2" value="Ed-Fi LMS Export to Relational Database" style="swimlane;html=1;childLayout=stackLayout;resizeParent=1;resizeParentMax=0;horizontal=1;startSize=30;horizontalStack=0;" parent="oSZAAdP2Cu10eBQa7mfy-1" vertex="1">
                    <mxGeometry x="80" y="80" width="690" height="780" as="geometry">
                        <mxRectangle x="180" y="210" width="60" height="20" as="alternateBounds"/>
                    </mxGeometry>
                </mxCell>
                <mxCell id="oSZAAdP2Cu10eBQa7mfy-3" value="LMS" style="swimlane;html=1;startSize=20;horizontal=0;" parent="oSZAAdP2Cu10eBQa7mfy-2" vertex="1">
                    <mxGeometry y="30" width="690" height="150" as="geometry"/>
                </mxCell>
                <mxCell id="oSZAAdP2Cu10eBQa7mfy-4" value="API Service" style="rounded=0;whiteSpace=wrap;html=1;fillColor=#f5f5f5;strokeColor=#666666;fontColor=#333333;gradientColor=#ffffff;" parent="oSZAAdP2Cu10eBQa7mfy-3" vertex="1">
                    <mxGeometry x="140" y="40" width="120" height="60" as="geometry"/>
                </mxCell>
                <mxCell id="oSZAAdP2Cu10eBQa7mfy-5" value="1.1 Get Data" style="edgeStyle=orthogonalEdgeStyle;rounded=0;orthogonalLoop=1;jettySize=auto;html=1;exitX=0.5;exitY=0;exitDx=0;exitDy=0;fontSize=12;entryX=0.5;entryY=1;entryDx=0;entryDy=0;" parent="oSZAAdP2Cu10eBQa7mfy-2" source="oSZAAdP2Cu10eBQa7mfy-7" target="oSZAAdP2Cu10eBQa7mfy-4" edge="1">
                    <mxGeometry x="-0.3188" y="10" relative="1" as="geometry">
                        <mxPoint x="222" y="210" as="sourcePoint"/>
                        <mxPoint x="278" y="130" as="targetPoint"/>
                        <mxPoint as="offset"/>
                        <Array as="points">
                            <mxPoint x="198" y="200"/>
                            <mxPoint x="200" y="200"/>
                        </Array>
                    </mxGeometry>
                </mxCell>
                <mxCell id="oSZAAdP2Cu10eBQa7mfy-26" value="3.1 Write to RDBMS" style="edgeStyle=orthogonalEdgeStyle;rounded=0;orthogonalLoop=1;jettySize=auto;html=1;entryX=0.5;entryY=0;entryDx=0;entryDy=0;" parent="oSZAAdP2Cu10eBQa7mfy-2" target="pa7iyVWQ3tLrv5qxvUSS-18" edge="1">
                    <mxGeometry x="-0.2406" y="-10" relative="1" as="geometry">
                        <mxPoint x="200" y="607.5" as="targetPoint"/>
                        <Array as="points">
                            <mxPoint x="282" y="500"/>
                            <mxPoint x="215" y="500"/>
                        </Array>
                        <mxPoint as="offset"/>
                        <mxPoint x="282" y="450" as="sourcePoint"/>
                    </mxGeometry>
                </mxCell>
                <object label="App Server" id="oSZAAdP2Cu10eBQa7mfy-6">
                    <mxCell style="swimlane;html=1;startSize=20;horizontal=0;" parent="oSZAAdP2Cu10eBQa7mfy-2" vertex="1">
                        <mxGeometry y="180" width="690" height="410" as="geometry"/>
                    </mxCell>
                </object>
                <mxCell id="oSZAAdP2Cu10eBQa7mfy-7" value="Extract and Analyzer Processes" style="shape=process;whiteSpace=wrap;html=1;backgroundOutline=1;fillColor=#f5f5f5;strokeColor=#666666;fontColor=#333333;" parent="oSZAAdP2Cu10eBQa7mfy-6" vertex="1">
                    <mxGeometry x="140.5" y="40" width="120" height="60" as="geometry"/>
                </mxCell>
                <mxCell id="oSZAAdP2Cu10eBQa7mfy-8" value="CSV Files" style="rounded=0;whiteSpace=wrap;html=1;shadow=0;glass=0;sketch=0;strokeColor=#999999;gradientColor=none;fontSize=12;verticalAlign=bottom;" parent="oSZAAdP2Cu10eBQa7mfy-6" vertex="1">
                    <mxGeometry x="342" y="50" width="188" height="130" as="geometry"/>
                </mxCell>
                <mxCell id="oSZAAdP2Cu10eBQa7mfy-10" value="1.2, 2.2 Write&lt;br&gt;to CSV" style="edgeStyle=orthogonalEdgeStyle;rounded=0;orthogonalLoop=1;jettySize=auto;html=1;exitX=1;exitY=0.5;exitDx=0;exitDy=0;entryX=0;entryY=0.5;entryDx=0;entryDy=0;" parent="oSZAAdP2Cu10eBQa7mfy-6" source="oSZAAdP2Cu10eBQa7mfy-7" target="oSZAAdP2Cu10eBQa7mfy-8" edge="1">
                    <mxGeometry relative="1" as="geometry">
                        <mxPoint x="270" y="120" as="targetPoint"/>
                        <mxPoint x="252" y="75" as="sourcePoint"/>
                    </mxGeometry>
                </mxCell>
                <mxCell id="oSZAAdP2Cu10eBQa7mfy-12" value="Run (1) Extractor&lt;br&gt;and (2) optional&lt;br&gt;Analyzers" style="edgeStyle=orthogonalEdgeStyle;rounded=0;orthogonalLoop=1;jettySize=auto;html=1;entryX=0.5;entryY=1;entryDx=0;entryDy=0;exitX=0.73;exitY=1;exitDx=0;exitDy=0;exitPerimeter=0;" parent="oSZAAdP2Cu10eBQa7mfy-6" source="oSZAAdP2Cu10eBQa7mfy-13" target="oSZAAdP2Cu10eBQa7mfy-7" edge="1">
                    <mxGeometry x="-0.0639" y="-20" relative="1" as="geometry">
                        <mxPoint as="offset"/>
                    </mxGeometry>
                </mxCell>
                <mxCell id="u25Q2ZeymCkLsAhdIpUS-1" value="4 . Run Final Loader" style="edgeStyle=orthogonalEdgeStyle;rounded=0;orthogonalLoop=1;jettySize=auto;html=1;entryX=0;entryY=0.5;entryDx=0;entryDy=0;" parent="oSZAAdP2Cu10eBQa7mfy-6" target="pa7iyVWQ3tLrv5qxvUSS-26" edge="1">
                    <mxGeometry relative="1" as="geometry">
                        <mxPoint x="97" y="350" as="sourcePoint"/>
                    </mxGeometry>
                </mxCell>
                <mxCell id="oSZAAdP2Cu10eBQa7mfy-11" value="" style="shape=parallelogram;html=1;strokeWidth=2;perimeter=parallelogramPerimeter;whiteSpace=wrap;rounded=1;arcSize=12;size=0.23;fillColor=#f5f5f5;strokeColor=#666666;fontColor=#333333;" parent="oSZAAdP2Cu10eBQa7mfy-6" vertex="1">
                    <mxGeometry x="390" y="70" width="100" height="60" as="geometry"/>
                </mxCell>
                <mxCell id="oSZAAdP2Cu10eBQa7mfy-9" value="etc." style="text;html=1;strokeColor=none;fillColor=none;align=center;verticalAlign=middle;whiteSpace=wrap;rounded=0;" parent="oSZAAdP2Cu10eBQa7mfy-6" vertex="1">
                    <mxGeometry x="490" y="90" width="40" height="20" as="geometry"/>
                </mxCell>
                <mxCell id="oSZAAdP2Cu10eBQa7mfy-16" value="Sections" style="shape=parallelogram;html=1;strokeWidth=2;perimeter=parallelogramPerimeter;whiteSpace=wrap;rounded=1;arcSize=12;size=0.23;fillColor=#f5f5f5;strokeColor=#666666;fontColor=#333333;" parent="oSZAAdP2Cu10eBQa7mfy-6" vertex="1">
                    <mxGeometry x="365" y="80" width="100" height="60" as="geometry"/>
                </mxCell>
                <mxCell id="oSZAAdP2Cu10eBQa7mfy-13" value="Orchestration / Scheduler Service" style="rounded=0;whiteSpace=wrap;html=1;fillColor=#f5f5f5;strokeColor=#666666;rotation=-90;fontColor=#333333;" parent="oSZAAdP2Cu10eBQa7mfy-6" vertex="1">
                    <mxGeometry x="-116.24" y="176.26" width="362.5" height="60" as="geometry"/>
                </mxCell>
                <mxCell id="oSZAAdP2Cu10eBQa7mfy-18" value="3. Write to Ed-Fi&lt;br&gt;LMS Data Store API" style="edgeStyle=orthogonalEdgeStyle;rounded=0;orthogonalLoop=1;jettySize=auto;html=1;exitX=0.5;exitY=1;exitDx=0;exitDy=0;entryX=0;entryY=0.5;entryDx=0;entryDy=0;" parent="oSZAAdP2Cu10eBQa7mfy-6" source="oSZAAdP2Cu10eBQa7mfy-13" target="A3WGLjxe-JT_pSUw8YjR-0" edge="1">
                    <mxGeometry relative="1" as="geometry">
                        <mxPoint x="222" y="240" as="targetPoint"/>
                    </mxGeometry>
                </mxCell>
                <mxCell id="oSZAAdP2Cu10eBQa7mfy-20" value="3.1 Read CSVs" style="edgeStyle=orthogonalEdgeStyle;rounded=0;orthogonalLoop=1;jettySize=auto;html=1;exitX=1;exitY=0.5;exitDx=0;exitDy=0;entryX=0.269;entryY=1.007;entryDx=0;entryDy=0;entryPerimeter=0;" parent="oSZAAdP2Cu10eBQa7mfy-6" source="A3WGLjxe-JT_pSUw8YjR-0" target="oSZAAdP2Cu10eBQa7mfy-8" edge="1">
                    <mxGeometry relative="1" as="geometry">
                        <mxPoint x="352" y="110" as="targetPoint"/>
                        <mxPoint x="342" y="240" as="sourcePoint"/>
                    </mxGeometry>
                </mxCell>
                <mxCell id="A3WGLjxe-JT_pSUw8YjR-0" value="LMS Loader Process" style="shape=process;whiteSpace=wrap;html=1;backgroundOutline=1;fillColor=#f5f5f5;strokeColor=#666666;fontColor=#333333;" parent="oSZAAdP2Cu10eBQa7mfy-6" vertex="1">
                    <mxGeometry x="200" y="230" width="120" height="60" as="geometry"/>
                </mxCell>
                <mxCell id="pa7iyVWQ3tLrv5qxvUSS-26" value="LMS-to-ODS Loader" style="rounded=0;whiteSpace=wrap;html=1;fillColor=#dae8fc;strokeColor=#6c8ebf;gradientColor=#ffffff;" parent="oSZAAdP2Cu10eBQa7mfy-6" vertex="1">
                    <mxGeometry x="345" y="320" width="120" height="60" as="geometry"/>
                </mxCell>
                <object label="Database Server" id="pa7iyVWQ3tLrv5qxvUSS-16">
                    <mxCell style="swimlane;html=1;startSize=20;horizontal=0;" parent="oSZAAdP2Cu10eBQa7mfy-2" vertex="1">
                        <mxGeometry y="590" width="690" height="190" as="geometry"/>
                    </mxCell>
                </object>
                <mxCell id="pa7iyVWQ3tLrv5qxvUSS-18" value="Any Database" style="shape=datastore;whiteSpace=wrap;html=1;gradientColor=#ffffff;verticalAlign=bottom;strokeColor=#999999;" parent="pa7iyVWQ3tLrv5qxvUSS-16" vertex="1">
                    <mxGeometry x="100" y="37" width="230" height="140" as="geometry"/>
                </mxCell>
                <mxCell id="pa7iyVWQ3tLrv5qxvUSS-22" value="lms.Section" style="rounded=1;arcSize=10;whiteSpace=wrap;html=1;align=center;glass=0;fillColor=#f5f5f5;strokeColor=#666666;fontColor=#333333;" parent="pa7iyVWQ3tLrv5qxvUSS-16" vertex="1">
                    <mxGeometry x="105" y="95" width="100" height="40" as="geometry"/>
                </mxCell>
                <mxCell id="pa7iyVWQ3tLrv5qxvUSS-21" value="lms.Assignments" style="rounded=1;arcSize=10;whiteSpace=wrap;html=1;align=center;glass=0;fillColor=#f5f5f5;strokeColor=#666666;fontColor=#333333;" parent="pa7iyVWQ3tLrv5qxvUSS-16" vertex="1">
                    <mxGeometry x="220" y="95" width="100" height="40" as="geometry"/>
                </mxCell>
                <mxCell id="pa7iyVWQ3tLrv5qxvUSS-20" value="etc." style="text;html=1;strokeColor=none;fillColor=none;align=center;verticalAlign=middle;whiteSpace=wrap;rounded=0;" parent="pa7iyVWQ3tLrv5qxvUSS-16" vertex="1">
                    <mxGeometry x="195" y="135" width="40" height="20" as="geometry"/>
                </mxCell>
                <mxCell id="pa7iyVWQ3tLrv5qxvUSS-17" value="ODS Database" style="shape=datastore;whiteSpace=wrap;html=1;gradientColor=#ffffff;verticalAlign=bottom;strokeColor=#999999;" parent="pa7iyVWQ3tLrv5qxvUSS-16" vertex="1">
                    <mxGeometry x="410" y="37" width="230" height="140" as="geometry"/>
                </mxCell>
                <mxCell id="pa7iyVWQ3tLrv5qxvUSS-19" value="edfi.Section" style="rounded=1;arcSize=10;whiteSpace=wrap;html=1;align=center;glass=0;fillColor=#f5f5f5;strokeColor=#666666;fontColor=#333333;gradientColor=#ffffff;" parent="pa7iyVWQ3tLrv5qxvUSS-16" vertex="1">
                    <mxGeometry x="440" y="95" width="100" height="40" as="geometry"/>
                </mxCell>
                <mxCell id="pa7iyVWQ3tLrv5qxvUSS-28" value="etc." style="text;html=1;strokeColor=none;fillColor=none;align=center;verticalAlign=middle;whiteSpace=wrap;rounded=0;" parent="pa7iyVWQ3tLrv5qxvUSS-16" vertex="1">
                    <mxGeometry x="560" y="105" width="40" height="20" as="geometry"/>
                </mxCell>
                <mxCell id="u25Q2ZeymCkLsAhdIpUS-2" value="4.1 Read New Data" style="edgeStyle=orthogonalEdgeStyle;rounded=0;orthogonalLoop=1;jettySize=auto;html=1;exitX=0.25;exitY=1;exitDx=0;exitDy=0;entryX=0.865;entryY=0.007;entryDx=0;entryDy=0;entryPerimeter=0;" parent="oSZAAdP2Cu10eBQa7mfy-2" source="pa7iyVWQ3tLrv5qxvUSS-26" target="pa7iyVWQ3tLrv5qxvUSS-18" edge="1">
                    <mxGeometry x="0.0556" y="-8" relative="1" as="geometry">
                        <mxPoint as="offset"/>
                    </mxGeometry>
                </mxCell>
                <mxCell id="u25Q2ZeymCkLsAhdIpUS-3" value="4.2 Write New Data" style="edgeStyle=orthogonalEdgeStyle;rounded=0;orthogonalLoop=1;jettySize=auto;html=1;exitX=0.75;exitY=1;exitDx=0;exitDy=0;entryX=0.15;entryY=0.05;entryDx=0;entryDy=0;entryPerimeter=0;" parent="oSZAAdP2Cu10eBQa7mfy-2" source="pa7iyVWQ3tLrv5qxvUSS-26" target="pa7iyVWQ3tLrv5qxvUSS-17" edge="1">
                    <mxGeometry x="0.0299" y="21" relative="1" as="geometry">
                        <mxPoint x="-5" y="-13" as="offset"/>
                    </mxGeometry>
                </mxCell>
                <mxCell id="maZ6IlJu6Vmr19EghPK5-2" value="Human intervention for unmatched data" style="edgeStyle=orthogonalEdgeStyle;rounded=0;orthogonalLoop=1;jettySize=auto;html=1;entryX=0.85;entryY=0.95;entryDx=0;entryDy=0;entryPerimeter=0;" parent="oSZAAdP2Cu10eBQa7mfy-1" source="maZ6IlJu6Vmr19EghPK5-1" target="pa7iyVWQ3tLrv5qxvUSS-18" edge="1">
                    <mxGeometry relative="1" as="geometry"/>
                </mxCell>
                <mxCell id="maZ6IlJu6Vmr19EghPK5-1" value="" style="shape=umlActor;verticalLabelPosition=bottom;verticalAlign=top;html=1;outlineConnect=0;strokeColor=#7EA6E0;strokeWidth=4;gradientColor=#ffffff;perimeterSpacing=0;" parent="oSZAAdP2Cu10eBQa7mfy-1" vertex="1">
                    <mxGeometry x="120" y="880" width="30" height="60" as="geometry"/>
                </mxCell>
                <mxCell id="y4K_tHBCv1yU2nuiRdB--0" value="" style="group" vertex="1" connectable="0" parent="oSZAAdP2Cu10eBQa7mfy-1">
                    <mxGeometry x="480" y="877" width="130" height="70" as="geometry"/>
                </mxCell>
                <mxCell id="y4K_tHBCv1yU2nuiRdB--1" value="Excel, Sheets, Reporting, BI Tools" style="rounded=0;whiteSpace=wrap;html=1;fillColor=#f5f5f5;strokeColor=#666666;fontColor=#333333;gradientColor=#ffffff;" vertex="1" parent="y4K_tHBCv1yU2nuiRdB--0">
                    <mxGeometry x="10" width="120" height="60" as="geometry"/>
                </mxCell>
                <mxCell id="y4K_tHBCv1yU2nuiRdB--2" value="Excel, Sheets, Reporting, BI Tools" style="rounded=0;whiteSpace=wrap;html=1;fillColor=#f5f5f5;strokeColor=#666666;fontColor=#333333;gradientColor=#ffffff;" vertex="1" parent="y4K_tHBCv1yU2nuiRdB--0">
                    <mxGeometry y="10" width="120" height="60" as="geometry"/>
                </mxCell>
                <mxCell id="y4K_tHBCv1yU2nuiRdB--3" style="edgeStyle=orthogonalEdgeStyle;rounded=1;orthogonalLoop=1;jettySize=auto;html=1;entryX=1;entryY=0.7;entryDx=0;entryDy=0;" edge="1" parent="oSZAAdP2Cu10eBQa7mfy-1" source="y4K_tHBCv1yU2nuiRdB--2" target="pa7iyVWQ3tLrv5qxvUSS-18">
                    <mxGeometry relative="1" as="geometry"/>
                </mxCell>
                <mxCell id="y4K_tHBCv1yU2nuiRdB--4" style="edgeStyle=orthogonalEdgeStyle;rounded=1;orthogonalLoop=1;jettySize=auto;html=1;entryX=0.5;entryY=1;entryDx=0;entryDy=0;" edge="1" parent="oSZAAdP2Cu10eBQa7mfy-1" source="y4K_tHBCv1yU2nuiRdB--2" target="pa7iyVWQ3tLrv5qxvUSS-17">
                    <mxGeometry relative="1" as="geometry"/>
                </mxCell>
                <mxCell id="y4K_tHBCv1yU2nuiRdB--5" style="edgeStyle=orthogonalEdgeStyle;rounded=1;orthogonalLoop=1;jettySize=auto;html=1;entryX=1;entryY=0.75;entryDx=0;entryDy=0;" edge="1" parent="oSZAAdP2Cu10eBQa7mfy-1" source="y4K_tHBCv1yU2nuiRdB--2" target="oSZAAdP2Cu10eBQa7mfy-8">
                    <mxGeometry relative="1" as="geometry">
                        <Array as="points">
                            <mxPoint x="740" y="915"/>
                            <mxPoint x="740" y="408"/>
                        </Array>
                    </mxGeometry>
                </mxCell>
            </root>
        </mxGraphModel>
    </diagram>
    <diagram id="u60uF6EK9jHa5Ao6eQlM" name="v3 - Overview">
        <mxGraphModel dx="1284" dy="804" grid="1" gridSize="10" guides="1" tooltips="1" connect="1" arrows="1" fold="1" page="1" pageScale="1" pageWidth="850" pageHeight="1100" math="0" shadow="0">
            <root>
                <mxCell id="Mk_my-drdJQh2HX9_0_3-0"/>
                <mxCell id="Mk_my-drdJQh2HX9_0_3-1" parent="Mk_my-drdJQh2HX9_0_3-0"/>
                <mxCell id="LES7szQddW6AVuObh80V-49" value="" style="group" parent="Mk_my-drdJQh2HX9_0_3-1" vertex="1" connectable="0">
                    <mxGeometry x="560" y="260" width="130" height="70" as="geometry"/>
                </mxCell>
                <mxCell id="LES7szQddW6AVuObh80V-48" value="Excel, Sheets, Reporting, BI Tools" style="rounded=0;whiteSpace=wrap;html=1;fillColor=#f5f5f5;strokeColor=#666666;fontColor=#333333;gradientColor=#ffffff;" parent="LES7szQddW6AVuObh80V-49" vertex="1">
                    <mxGeometry x="10" width="120" height="60" as="geometry"/>
                </mxCell>
                <mxCell id="LES7szQddW6AVuObh80V-47" value="Excel, Sheets, Reporting, BI Tools" style="rounded=0;whiteSpace=wrap;html=1;fillColor=#f5f5f5;strokeColor=#666666;fontColor=#333333;gradientColor=#ffffff;" parent="LES7szQddW6AVuObh80V-49" vertex="1">
                    <mxGeometry y="10" width="120" height="60" as="geometry"/>
                </mxCell>
                <mxCell id="LES7szQddW6AVuObh80V-50" style="edgeStyle=orthogonalEdgeStyle;rounded=1;orthogonalLoop=1;jettySize=auto;html=1;entryX=1;entryY=0.5;entryDx=0;entryDy=0;exitX=0;exitY=0.25;exitDx=0;exitDy=0;" parent="Mk_my-drdJQh2HX9_0_3-1" source="LES7szQddW6AVuObh80V-47" target="LES7szQddW6AVuObh80V-36" edge="1">
                    <mxGeometry relative="1" as="geometry">
                        <Array as="points">
                            <mxPoint x="520" y="285"/>
                            <mxPoint x="520" y="222"/>
                        </Array>
                    </mxGeometry>
                </mxCell>
                <mxCell id="LES7szQddW6AVuObh80V-51" style="edgeStyle=orthogonalEdgeStyle;rounded=1;orthogonalLoop=1;jettySize=auto;html=1;" parent="Mk_my-drdJQh2HX9_0_3-1" source="LES7szQddW6AVuObh80V-47" target="LES7szQddW6AVuObh80V-40" edge="1">
                    <mxGeometry relative="1" as="geometry">
                        <Array as="points">
                            <mxPoint x="520" y="300"/>
                            <mxPoint x="520" y="347"/>
                        </Array>
                    </mxGeometry>
                </mxCell>
                <mxCell id="LES7szQddW6AVuObh80V-52" style="edgeStyle=orthogonalEdgeStyle;rounded=1;orthogonalLoop=1;jettySize=auto;html=1;entryX=0.5;entryY=1;entryDx=0;entryDy=0;" parent="Mk_my-drdJQh2HX9_0_3-1" source="LES7szQddW6AVuObh80V-47" target="LES7szQddW6AVuObh80V-42" edge="1">
                    <mxGeometry relative="1" as="geometry">
                        <Array as="points">
                            <mxPoint x="590" y="520"/>
                            <mxPoint x="203" y="520"/>
                        </Array>
                    </mxGeometry>
                </mxCell>
                <mxCell id="LES7szQddW6AVuObh80V-0" value="LMS Toolkit for Instructional / Learning Management System Data Access" style="swimlane;html=1;childLayout=stackLayout;resizeParent=1;resizeParentMax=0;horizontal=1;startSize=30;horizontalStack=0;" parent="Mk_my-drdJQh2HX9_0_3-1" vertex="1">
                    <mxGeometry x="40" y="30" width="460" height="500" as="geometry">
                        <mxRectangle x="180" y="210" width="60" height="20" as="alternateBounds"/>
                    </mxGeometry>
                </mxCell>
                <mxCell id="LES7szQddW6AVuObh80V-41" style="edgeStyle=orthogonalEdgeStyle;rounded=0;orthogonalLoop=1;jettySize=auto;html=1;entryX=0.5;entryY=0;entryDx=0;entryDy=0;" parent="LES7szQddW6AVuObh80V-0" source="LES7szQddW6AVuObh80V-37" target="LES7szQddW6AVuObh80V-40" edge="1">
                    <mxGeometry relative="1" as="geometry"/>
                </mxCell>
                <mxCell id="LES7szQddW6AVuObh80V-46" style="edgeStyle=orthogonalEdgeStyle;rounded=0;orthogonalLoop=1;jettySize=auto;html=1;entryX=0.5;entryY=1;entryDx=0;entryDy=0;" parent="LES7szQddW6AVuObh80V-0" source="LES7szQddW6AVuObh80V-43" target="LES7szQddW6AVuObh80V-40" edge="1">
                    <mxGeometry relative="1" as="geometry">
                        <mxPoint x="360" y="350" as="targetPoint"/>
                    </mxGeometry>
                </mxCell>
                <mxCell id="LES7szQddW6AVuObh80V-1" value="Solution 1:&lt;br&gt;Extract to CSV" style="swimlane;html=1;startSize=30;horizontal=0;" parent="LES7szQddW6AVuObh80V-0" vertex="1">
                    <mxGeometry y="30" width="460" height="220" as="geometry"/>
                </mxCell>
                <mxCell id="LES7szQddW6AVuObh80V-34" value="calls to &lt;br&gt;remote API" style="edgeStyle=orthogonalEdgeStyle;rounded=0;orthogonalLoop=1;jettySize=auto;html=1;entryX=0.25;entryY=1;entryDx=0;entryDy=0;exitX=0.25;exitY=0;exitDx=0;exitDy=0;" parent="LES7szQddW6AVuObh80V-1" source="LES7szQddW6AVuObh80V-33" target="LES7szQddW6AVuObh80V-32" edge="1">
                    <mxGeometry relative="1" as="geometry">
                        <mxPoint x="40" y="90" as="sourcePoint"/>
                        <mxPoint x="20" y="150" as="targetPoint"/>
                    </mxGeometry>
                </mxCell>
                <mxCell id="LES7szQddW6AVuObh80V-35" value="access to&lt;br&gt;exported file" style="edgeStyle=orthogonalEdgeStyle;rounded=0;orthogonalLoop=1;jettySize=auto;html=1;entryX=0.75;entryY=0;entryDx=0;entryDy=0;exitX=0.75;exitY=1;exitDx=0;exitDy=0;" parent="LES7szQddW6AVuObh80V-1" source="LES7szQddW6AVuObh80V-32" target="LES7szQddW6AVuObh80V-33" edge="1">
                    <mxGeometry relative="1" as="geometry"/>
                </mxCell>
                <mxCell id="LES7szQddW6AVuObh80V-38" style="edgeStyle=orthogonalEdgeStyle;rounded=0;orthogonalLoop=1;jettySize=auto;html=1;entryX=0;entryY=0.5;entryDx=0;entryDy=0;" parent="LES7szQddW6AVuObh80V-1" source="LES7szQddW6AVuObh80V-33" target="LES7szQddW6AVuObh80V-37" edge="1">
                    <mxGeometry relative="1" as="geometry"/>
                </mxCell>
                <mxCell id="LES7szQddW6AVuObh80V-39" value="" style="group" parent="LES7szQddW6AVuObh80V-1" vertex="1" connectable="0">
                    <mxGeometry x="310" y="132" width="113" height="68" as="geometry"/>
                </mxCell>
                <mxCell id="LES7szQddW6AVuObh80V-36" value="" style="shape=parallelogram;html=1;strokeWidth=2;perimeter=parallelogramPerimeter;whiteSpace=wrap;rounded=1;arcSize=12;size=0.23;fillColor=#dae8fc;strokeColor=#6c8ebf;gradientColor=#ffffff;" parent="LES7szQddW6AVuObh80V-39" vertex="1">
                    <mxGeometry x="13" width="100" height="60" as="geometry"/>
                </mxCell>
                <mxCell id="LES7szQddW6AVuObh80V-37" value="CSV files" style="shape=parallelogram;html=1;strokeWidth=2;perimeter=parallelogramPerimeter;whiteSpace=wrap;rounded=1;arcSize=12;size=0.23;fillColor=#dae8fc;strokeColor=#6c8ebf;gradientColor=#ffffff;" parent="LES7szQddW6AVuObh80V-39" vertex="1">
                    <mxGeometry y="8" width="100" height="60" as="geometry"/>
                </mxCell>
                <mxCell id="LES7szQddW6AVuObh80V-33" value="Ed-Fi Utilities" style="rounded=0;whiteSpace=wrap;html=1;fillColor=#dae8fc;strokeColor=#6c8ebf;gradientColor=#ffffff;" parent="LES7szQddW6AVuObh80V-1" vertex="1">
                    <mxGeometry x="90" y="140" width="145" height="60" as="geometry"/>
                </mxCell>
                <mxCell id="LES7szQddW6AVuObh80V-32" value="Instructional / Learning Management System" style="rounded=0;whiteSpace=wrap;html=1;fillColor=#f5f5f5;strokeColor=#666666;fontColor=#333333;" parent="LES7szQddW6AVuObh80V-1" vertex="1">
                    <mxGeometry x="90" y="20" width="145" height="60" as="geometry"/>
                </mxCell>
                <object label="Solution 2: Store in&lt;br&gt;Relational Database" id="LES7szQddW6AVuObh80V-5">
                    <mxCell style="swimlane;html=1;startSize=30;horizontal=0;" parent="LES7szQddW6AVuObh80V-0" vertex="1">
                        <mxGeometry y="250" width="460" height="130" as="geometry"/>
                    </mxCell>
                </object>
                <mxCell id="LES7szQddW6AVuObh80V-40" value="LMS Data Store" style="shape=datastore;whiteSpace=wrap;html=1;verticalAlign=middle;strokeColor=#6c8ebf;fillColor=#dae8fc;gradientColor=#ffffff;" parent="LES7szQddW6AVuObh80V-5" vertex="1">
                    <mxGeometry x="301.25" y="32" width="117.5" height="70" as="geometry"/>
                </mxCell>
                <object label="Solution 3: Sync&lt;br&gt;with Ed-Fi ODS" id="LES7szQddW6AVuObh80V-19">
                    <mxCell style="swimlane;html=1;startSize=30;horizontal=0;" parent="LES7szQddW6AVuObh80V-0" vertex="1">
                        <mxGeometry y="380" width="460" height="120" as="geometry"/>
                    </mxCell>
                </object>
                <mxCell id="LES7szQddW6AVuObh80V-44" style="edgeStyle=orthogonalEdgeStyle;rounded=0;orthogonalLoop=1;jettySize=auto;html=1;entryX=1;entryY=0.5;entryDx=0;entryDy=0;" parent="LES7szQddW6AVuObh80V-19" source="LES7szQddW6AVuObh80V-43" target="LES7szQddW6AVuObh80V-42" edge="1">
                    <mxGeometry relative="1" as="geometry"/>
                </mxCell>
                <mxCell id="LES7szQddW6AVuObh80V-43" value="Ed-Fi Utilities" style="rounded=0;whiteSpace=wrap;html=1;fillColor=#dae8fc;strokeColor=#6c8ebf;gradientColor=#ffffff;" parent="LES7szQddW6AVuObh80V-19" vertex="1">
                    <mxGeometry x="287.5" y="25" width="145" height="60" as="geometry"/>
                </mxCell>
                <mxCell id="LES7szQddW6AVuObh80V-42" value="Ed-Fi ODS" style="shape=datastore;whiteSpace=wrap;html=1;verticalAlign=middle;strokeColor=#666666;fillColor=#f5f5f5;fontColor=#333333;" parent="LES7szQddW6AVuObh80V-19" vertex="1">
                    <mxGeometry x="103.75" y="20" width="117.5" height="70" as="geometry"/>
                </mxCell>
            </root>
        </mxGraphModel>
    </diagram>
    <diagram id="RhvKlWrOyEhFZL3mBvdB" name="LMS-DS-Loader Detail">
        <mxGraphModel dx="1378" dy="804" grid="0" gridSize="10" guides="1" tooltips="1" connect="1" arrows="1" fold="1" page="1" pageScale="1" pageWidth="850" pageHeight="1100" math="0" shadow="0">
            <root>
                <mxCell id="pKbx7CyRc58Hxm04b_Dk-0"/>
                <mxCell id="pKbx7CyRc58Hxm04b_Dk-1" parent="pKbx7CyRc58Hxm04b_Dk-0"/>
                <mxCell id="pKbx7CyRc58Hxm04b_Dk-25" style="edgeStyle=orthogonalEdgeStyle;rounded=0;orthogonalLoop=1;jettySize=auto;html=1;exitX=0.5;exitY=0.5;exitDx=0;exitDy=25;exitPerimeter=0;entryX=0.5;entryY=0;entryDx=0;entryDy=0;" edge="1" parent="pKbx7CyRc58Hxm04b_Dk-1" source="pKbx7CyRc58Hxm04b_Dk-2" target="pKbx7CyRc58Hxm04b_Dk-8">
                    <mxGeometry relative="1" as="geometry"/>
                </mxCell>
                <mxCell id="pKbx7CyRc58Hxm04b_Dk-2" value="Start Ed-Fi &lt;br&gt;LMS DS &lt;br&gt;Loader" style="html=1;dashed=0;whitespace=wrap;shape=mxgraph.dfd.start;fillColor=#f5f5f5;strokeColor=#666666;fontColor=#333333;gradientColor=#ffffff;" vertex="1" parent="pKbx7CyRc58Hxm04b_Dk-1">
                    <mxGeometry x="415" y="20" width="120" height="50" as="geometry"/>
                </mxCell>
                <mxCell id="pKbx7CyRc58Hxm04b_Dk-27" style="edgeStyle=orthogonalEdgeStyle;rounded=0;orthogonalLoop=1;jettySize=auto;html=1;exitX=0.5;exitY=1;exitDx=0;exitDy=0;exitPerimeter=0;entryX=0.5;entryY=0;entryDx=0;entryDy=0;entryPerimeter=0;" edge="1" parent="pKbx7CyRc58Hxm04b_Dk-1" source="pKbx7CyRc58Hxm04b_Dk-4" target="pKbx7CyRc58Hxm04b_Dk-6">
                    <mxGeometry relative="1" as="geometry"/>
                </mxCell>
                <mxCell id="pKbx7CyRc58Hxm04b_Dk-4" value="For Each File Type" style="html=1;dashed=0;whitespace=wrap;shape=mxgraph.dfd.loop;fillColor=#dae8fc;strokeColor=#6c8ebf;gradientColor=#ffffff;" vertex="1" parent="pKbx7CyRc58Hxm04b_Dk-1">
                    <mxGeometry x="410" y="190" width="130" height="30" as="geometry"/>
                </mxCell>
                <mxCell id="pKbx7CyRc58Hxm04b_Dk-35" style="edgeStyle=orthogonalEdgeStyle;rounded=0;orthogonalLoop=1;jettySize=auto;html=1;exitX=0.5;exitY=0;exitDx=0;exitDy=0;exitPerimeter=0;entryX=0.008;entryY=0.667;entryDx=0;entryDy=0;entryPerimeter=0;" edge="1" parent="pKbx7CyRc58Hxm04b_Dk-1" source="pKbx7CyRc58Hxm04b_Dk-5" target="pKbx7CyRc58Hxm04b_Dk-6">
                    <mxGeometry relative="1" as="geometry"/>
                </mxCell>
                <mxCell id="pKbx7CyRc58Hxm04b_Dk-37" style="edgeStyle=orthogonalEdgeStyle;rounded=0;orthogonalLoop=1;jettySize=auto;html=1;exitX=0;exitY=0.5;exitDx=0;exitDy=0;exitPerimeter=0;entryX=1;entryY=0.5;entryDx=0;entryDy=0;entryPerimeter=0;" edge="1" parent="pKbx7CyRc58Hxm04b_Dk-1" source="pKbx7CyRc58Hxm04b_Dk-5" target="pKbx7CyRc58Hxm04b_Dk-33">
                    <mxGeometry relative="1" as="geometry"/>
                </mxCell>
                <mxCell id="pKbx7CyRc58Hxm04b_Dk-5" value="next file" style="strokeWidth=2;html=1;shape=mxgraph.flowchart.loop_limit;whiteSpace=wrap;fillColor=#f5f5f5;strokeColor=#666666;fontColor=#333333;gradientColor=#ffffff;" vertex="1" parent="pKbx7CyRc58Hxm04b_Dk-1">
                    <mxGeometry x="310" y="347.5" width="70" height="35" as="geometry"/>
                </mxCell>
                <mxCell id="pKbx7CyRc58Hxm04b_Dk-28" style="edgeStyle=orthogonalEdgeStyle;rounded=0;orthogonalLoop=1;jettySize=auto;html=1;exitX=0.5;exitY=1;exitDx=0;exitDy=0;exitPerimeter=0;entryX=0.5;entryY=0;entryDx=0;entryDy=0;" edge="1" parent="pKbx7CyRc58Hxm04b_Dk-1" source="pKbx7CyRc58Hxm04b_Dk-6" target="pKbx7CyRc58Hxm04b_Dk-7">
                    <mxGeometry relative="1" as="geometry"/>
                </mxCell>
                <mxCell id="pKbx7CyRc58Hxm04b_Dk-6" value="For Each File" style="html=1;dashed=0;whitespace=wrap;shape=mxgraph.dfd.loop;fillColor=#dae8fc;strokeColor=#6c8ebf;gradientColor=#ffffff;" vertex="1" parent="pKbx7CyRc58Hxm04b_Dk-1">
                    <mxGeometry x="410" y="260" width="130" height="30" as="geometry"/>
                </mxCell>
                <mxCell id="pKbx7CyRc58Hxm04b_Dk-29" style="edgeStyle=orthogonalEdgeStyle;rounded=0;orthogonalLoop=1;jettySize=auto;html=1;exitX=0.5;exitY=1;exitDx=0;exitDy=0;entryX=0.5;entryY=0;entryDx=0;entryDy=0;" edge="1" parent="pKbx7CyRc58Hxm04b_Dk-1" source="pKbx7CyRc58Hxm04b_Dk-7" target="pKbx7CyRc58Hxm04b_Dk-16">
                    <mxGeometry relative="1" as="geometry"/>
                </mxCell>
                <mxCell id="pKbx7CyRc58Hxm04b_Dk-34" style="edgeStyle=orthogonalEdgeStyle;rounded=0;orthogonalLoop=1;jettySize=auto;html=1;exitX=0;exitY=0.5;exitDx=0;exitDy=0;entryX=1;entryY=0.5;entryDx=0;entryDy=0;entryPerimeter=0;" edge="1" parent="pKbx7CyRc58Hxm04b_Dk-1" source="pKbx7CyRc58Hxm04b_Dk-7" target="pKbx7CyRc58Hxm04b_Dk-5">
                    <mxGeometry relative="1" as="geometry"/>
                </mxCell>
                <mxCell id="pKbx7CyRc58Hxm04b_Dk-7" value="Already Processed?" style="rhombus;whiteSpace=wrap;html=1;fillColor=#dae8fc;strokeColor=#6c8ebf;gradientColor=#ffffff;" vertex="1" parent="pKbx7CyRc58Hxm04b_Dk-1">
                    <mxGeometry x="422.5" y="320" width="105" height="90" as="geometry"/>
                </mxCell>
                <mxCell id="pKbx7CyRc58Hxm04b_Dk-26" style="edgeStyle=orthogonalEdgeStyle;rounded=0;orthogonalLoop=1;jettySize=auto;html=1;exitX=0.5;exitY=1;exitDx=0;exitDy=0;entryX=0.5;entryY=0;entryDx=0;entryDy=0;entryPerimeter=0;" edge="1" parent="pKbx7CyRc58Hxm04b_Dk-1" source="pKbx7CyRc58Hxm04b_Dk-8" target="pKbx7CyRc58Hxm04b_Dk-4">
                    <mxGeometry relative="1" as="geometry"/>
                </mxCell>
                <mxCell id="pKbx7CyRc58Hxm04b_Dk-8" value="Deploy Table Infrastructure" style="rounded=0;whiteSpace=wrap;html=1;fillColor=#dae8fc;strokeColor=#6c8ebf;gradientColor=#ffffff;" vertex="1" parent="pKbx7CyRc58Hxm04b_Dk-1">
                    <mxGeometry x="415" y="100" width="120" height="60" as="geometry"/>
                </mxCell>
                <mxCell id="pKbx7CyRc58Hxm04b_Dk-9" value="SqlLite" style="shape=cylinder2;whiteSpace=wrap;html=1;boundedLbl=1;backgroundOutline=1;size=15;fillColor=#dae8fc;strokeColor=#6c8ebf;gradientColor=#ffffff;" vertex="1" parent="pKbx7CyRc58Hxm04b_Dk-1">
                    <mxGeometry x="645" y="323" width="60" height="75" as="geometry"/>
                </mxCell>
                <mxCell id="pKbx7CyRc58Hxm04b_Dk-10" value="SQL Database" style="shape=cylinder2;whiteSpace=wrap;html=1;boundedLbl=1;backgroundOutline=1;size=15;fillColor=#dae8fc;strokeColor=#6c8ebf;gradientColor=#ffffff;verticalAlign=bottom;" vertex="1" parent="pKbx7CyRc58Hxm04b_Dk-1">
                    <mxGeometry x="615" y="480" width="130" height="190" as="geometry"/>
                </mxCell>
                <mxCell id="pKbx7CyRc58Hxm04b_Dk-12" value="Staging&lt;br&gt;Table" style="shape=dataStorage;whiteSpace=wrap;html=1;fixedSize=1;fillColor=#f5f5f5;strokeColor=#666666;fontColor=#333333;gradientColor=#ffffff;" vertex="1" parent="pKbx7CyRc58Hxm04b_Dk-1">
                    <mxGeometry x="635" y="520" width="90" height="50" as="geometry"/>
                </mxCell>
                <mxCell id="pKbx7CyRc58Hxm04b_Dk-13" value="Live&lt;br&gt;Table" style="shape=dataStorage;whiteSpace=wrap;html=1;fixedSize=1;fillColor=#f5f5f5;strokeColor=#666666;fontColor=#333333;gradientColor=#ffffff;" vertex="1" parent="pKbx7CyRc58Hxm04b_Dk-1">
                    <mxGeometry x="635" y="590" width="90" height="50" as="geometry"/>
                </mxCell>
                <mxCell id="pKbx7CyRc58Hxm04b_Dk-21" style="edgeStyle=orthogonalEdgeStyle;rounded=0;orthogonalLoop=1;jettySize=auto;html=1;exitX=1;exitY=0.5;exitDx=0;exitDy=0;entryX=0;entryY=0.484;entryDx=0;entryDy=0;entryPerimeter=0;dashed=1;dashPattern=1 2;" edge="1" parent="pKbx7CyRc58Hxm04b_Dk-1" source="pKbx7CyRc58Hxm04b_Dk-15" target="pKbx7CyRc58Hxm04b_Dk-10">
                    <mxGeometry relative="1" as="geometry"/>
                </mxCell>
                <mxCell id="pKbx7CyRc58Hxm04b_Dk-31" style="edgeStyle=orthogonalEdgeStyle;rounded=0;orthogonalLoop=1;jettySize=auto;html=1;exitX=0.5;exitY=1;exitDx=0;exitDy=0;entryX=0.558;entryY=0;entryDx=0;entryDy=0;entryPerimeter=0;" edge="1" parent="pKbx7CyRc58Hxm04b_Dk-1" source="pKbx7CyRc58Hxm04b_Dk-15" target="pKbx7CyRc58Hxm04b_Dk-17">
                    <mxGeometry relative="1" as="geometry"/>
                </mxCell>
                <mxCell id="pKbx7CyRc58Hxm04b_Dk-15" value="Write File Contents to Staging" style="rounded=0;whiteSpace=wrap;html=1;fillColor=#dae8fc;strokeColor=#6c8ebf;gradientColor=#ffffff;" vertex="1" parent="pKbx7CyRc58Hxm04b_Dk-1">
                    <mxGeometry x="415" y="520" width="120" height="60" as="geometry"/>
                </mxCell>
                <mxCell id="pKbx7CyRc58Hxm04b_Dk-20" style="edgeStyle=orthogonalEdgeStyle;rounded=0;orthogonalLoop=1;jettySize=auto;html=1;exitX=1;exitY=0.5;exitDx=0;exitDy=0;entryX=0.038;entryY=0.316;entryDx=0;entryDy=0;entryPerimeter=0;dashed=1;dashPattern=1 2;" edge="1" parent="pKbx7CyRc58Hxm04b_Dk-1" source="pKbx7CyRc58Hxm04b_Dk-16" target="pKbx7CyRc58Hxm04b_Dk-10">
                    <mxGeometry relative="1" as="geometry"/>
                </mxCell>
                <mxCell id="pKbx7CyRc58Hxm04b_Dk-30" style="edgeStyle=orthogonalEdgeStyle;rounded=0;orthogonalLoop=1;jettySize=auto;html=1;exitX=0.5;exitY=1;exitDx=0;exitDy=0;entryX=0.5;entryY=0;entryDx=0;entryDy=0;" edge="1" parent="pKbx7CyRc58Hxm04b_Dk-1" source="pKbx7CyRc58Hxm04b_Dk-16" target="pKbx7CyRc58Hxm04b_Dk-15">
                    <mxGeometry relative="1" as="geometry"/>
                </mxCell>
                <mxCell id="pKbx7CyRc58Hxm04b_Dk-16" value="Truncate Staging&lt;br&gt;and Disable Index" style="rounded=0;whiteSpace=wrap;html=1;fillColor=#dae8fc;strokeColor=#6c8ebf;gradientColor=#ffffff;" vertex="1" parent="pKbx7CyRc58Hxm04b_Dk-1">
                    <mxGeometry x="415" y="440" width="120" height="60" as="geometry"/>
                </mxCell>
                <mxCell id="pKbx7CyRc58Hxm04b_Dk-22" style="edgeStyle=orthogonalEdgeStyle;rounded=0;orthogonalLoop=1;jettySize=auto;html=1;exitX=1;exitY=0.5;exitDx=0;exitDy=0;entryX=0.015;entryY=0.626;entryDx=0;entryDy=0;entryPerimeter=0;dashed=1;dashPattern=1 2;" edge="1" parent="pKbx7CyRc58Hxm04b_Dk-1" source="pKbx7CyRc58Hxm04b_Dk-17" target="pKbx7CyRc58Hxm04b_Dk-10">
                    <mxGeometry relative="1" as="geometry"/>
                </mxCell>
                <mxCell id="pKbx7CyRc58Hxm04b_Dk-32" style="edgeStyle=orthogonalEdgeStyle;rounded=0;orthogonalLoop=1;jettySize=auto;html=1;exitX=0.5;exitY=1;exitDx=0;exitDy=0;entryX=0.5;entryY=0;entryDx=0;entryDy=0;" edge="1" parent="pKbx7CyRc58Hxm04b_Dk-1" source="pKbx7CyRc58Hxm04b_Dk-17" target="pKbx7CyRc58Hxm04b_Dk-19">
                    <mxGeometry relative="1" as="geometry"/>
                </mxCell>
                <mxCell id="pKbx7CyRc58Hxm04b_Dk-17" value="Enable Index on Staging" style="rounded=0;whiteSpace=wrap;html=1;fillColor=#dae8fc;strokeColor=#6c8ebf;gradientColor=#ffffff;" vertex="1" parent="pKbx7CyRc58Hxm04b_Dk-1">
                    <mxGeometry x="415" y="600" width="120" height="60" as="geometry"/>
                </mxCell>
                <mxCell id="pKbx7CyRc58Hxm04b_Dk-23" style="edgeStyle=orthogonalEdgeStyle;rounded=0;orthogonalLoop=1;jettySize=auto;html=1;exitX=1;exitY=0.5;exitDx=0;exitDy=0;dashed=1;dashPattern=1 2;" edge="1" parent="pKbx7CyRc58Hxm04b_Dk-1" source="pKbx7CyRc58Hxm04b_Dk-19">
                    <mxGeometry relative="1" as="geometry">
                        <mxPoint x="614" y="640" as="targetPoint"/>
                        <Array as="points">
                            <mxPoint x="585" y="710"/>
                            <mxPoint x="585" y="640"/>
                        </Array>
                    </mxGeometry>
                </mxCell>
                <mxCell id="pKbx7CyRc58Hxm04b_Dk-36" style="edgeStyle=orthogonalEdgeStyle;rounded=0;orthogonalLoop=1;jettySize=auto;html=1;exitX=0;exitY=0.5;exitDx=0;exitDy=0;entryX=0.5;entryY=1;entryDx=0;entryDy=0;entryPerimeter=0;" edge="1" parent="pKbx7CyRc58Hxm04b_Dk-1" source="pKbx7CyRc58Hxm04b_Dk-19" target="pKbx7CyRc58Hxm04b_Dk-5">
                    <mxGeometry relative="1" as="geometry"/>
                </mxCell>
                <mxCell id="pKbx7CyRc58Hxm04b_Dk-19" value="Run Insert, Update, and Delete Operations" style="shape=process;whiteSpace=wrap;html=1;backgroundOutline=1;fillColor=#dae8fc;strokeColor=#6c8ebf;gradientColor=#ffffff;" vertex="1" parent="pKbx7CyRc58Hxm04b_Dk-1">
                    <mxGeometry x="415" y="680" width="120" height="60" as="geometry"/>
                </mxCell>
                <mxCell id="pKbx7CyRc58Hxm04b_Dk-24" style="edgeStyle=orthogonalEdgeStyle;rounded=0;orthogonalLoop=1;jettySize=auto;html=1;exitX=1;exitY=0.5;exitDx=0;exitDy=0;entryX=-0.017;entryY=0.56;entryDx=0;entryDy=0;entryPerimeter=0;dashed=1;dashPattern=1 2;" edge="1" parent="pKbx7CyRc58Hxm04b_Dk-1" source="pKbx7CyRc58Hxm04b_Dk-7" target="pKbx7CyRc58Hxm04b_Dk-9">
                    <mxGeometry relative="1" as="geometry">
                        <mxPoint x="545" y="480" as="sourcePoint"/>
                        <mxPoint x="629.94" y="550.04" as="targetPoint"/>
                    </mxGeometry>
                </mxCell>
                <mxCell id="pKbx7CyRc58Hxm04b_Dk-38" style="edgeStyle=orthogonalEdgeStyle;rounded=0;orthogonalLoop=1;jettySize=auto;html=1;exitX=0.5;exitY=0;exitDx=0;exitDy=0;exitPerimeter=0;entryX=-0.008;entryY=0.433;entryDx=0;entryDy=0;entryPerimeter=0;" edge="1" parent="pKbx7CyRc58Hxm04b_Dk-1" source="pKbx7CyRc58Hxm04b_Dk-33" target="pKbx7CyRc58Hxm04b_Dk-4">
                    <mxGeometry relative="1" as="geometry"/>
                </mxCell>
                <mxCell id="pKbx7CyRc58Hxm04b_Dk-33" value="next type" style="strokeWidth=2;html=1;shape=mxgraph.flowchart.loop_limit;whiteSpace=wrap;fillColor=#f5f5f5;strokeColor=#666666;fontColor=#333333;gradientColor=#ffffff;" vertex="1" parent="pKbx7CyRc58Hxm04b_Dk-1">
                    <mxGeometry x="210" y="347.5" width="70" height="35" as="geometry"/>
                </mxCell>
                <mxCell id="pKbx7CyRc58Hxm04b_Dk-39" style="edgeStyle=orthogonalEdgeStyle;rounded=0;orthogonalLoop=1;jettySize=auto;html=1;exitX=1;exitY=0.5;exitDx=0;exitDy=0;entryX=0.838;entryY=0.016;entryDx=0;entryDy=0;entryPerimeter=0;dashed=1;dashPattern=1 2;" edge="1" parent="pKbx7CyRc58Hxm04b_Dk-1" source="pKbx7CyRc58Hxm04b_Dk-8" target="pKbx7CyRc58Hxm04b_Dk-10">
                    <mxGeometry relative="1" as="geometry">
                        <mxPoint x="545" y="480" as="sourcePoint"/>
                        <mxPoint x="629.94" y="550.04" as="targetPoint"/>
                    </mxGeometry>
                </mxCell>
            </root>
        </mxGraphModel>
    </diagram>
</mxfile>
